<?xml version="1.0" encoding="utf-8"?>
<!-- Generator: Adobe Illustrator 25.2.1, SVG Export Plug-In . SVG Version: 6.00 Build 0)  -->
<svg version="1.1" id="Layer_1" xmlns="http://www.w3.org/2000/svg" xmlns:xlink="http://www.w3.org/1999/xlink" x="0px" y="0px"
	 viewBox="0 0 193 63.8" style="enable-background:new 0 0 193 63.8;" xml:space="preserve">
<style type="text/css">
	.st0{fill:#010101;}
</style>
<g>
	<path class="st0" d="M26.5,22.4c-2.5-3.1-6.5-5-10.8-5C6.6,17.4,0,24,0,33.2c0,9.1,6.5,15.5,15.8,15.5c4.2,0,8.3-1.9,10.8-4.9v4.2
		c0,4.1-1.4,11.1-11,11.1c-4,0-8.5-2.1-10.9-5.2l-0.4-0.5l-3.8,4l0.3,0.3c3.6,3.8,9,6.1,14.5,6.1c15.3,0,16.5-12.2,16.5-15.9V18.2
		h-5.3V22.4z M27,33c0,6.5-4.5,11-10.8,11C8.9,44,5.5,38.3,5.5,33c0-5.3,3.3-11,10.7-11C22.3,22,27,26.8,27,33z"/>
	<path class="st0" d="M56.9,17.4c-3.9,0-7.5,1.8-9.5,4.5V0h-5.3v48.7h5.3V33c0-7.6,4.2-11,8.5-11c5.2,0,7.5,3,7.5,9.8v16.8h5.3V30.1
		C68.6,22,64.4,17.4,56.9,17.4z"/>
	<path class="st0" d="M88.6,30.6L88.6,30.6c-4.9-1-6.7-2.2-6.7-4.6c0-3,3.1-4.1,5.7-4.1c3,0,5.6,1.5,6.8,3.9l0.3,0.5l4.1-3.1
		l-0.2-0.4c-1.9-3.3-6.2-5.5-10.8-5.5c-5.1,0-11,2.4-11,9.1c0,6.3,6,7.8,8.8,8.4c5.5,1.3,8.3,2.5,8.3,5.2c0,4.1-4,4.7-6.4,4.7
		c-3.1,0-6.2-1.8-7.8-4.4l-0.3-0.5l-4.2,3.1l0.3,0.4c2.6,3.8,7,6,12.1,6c5.6,0,11.6-2.5,11.6-9.6C99.2,35,95.9,32.2,88.6,30.6z"/>
	<path class="st0" d="M120.1,43.5c-1.1,0.6-2.4,0.9-3.5,0.9c-2.3,0-3.9-0.8-3.9-4.9V22.7h8.3v-4.6h-8.3V9.8h-5.3v8.3h-6.1v4.6h6.1
		v17.9c0,7.6,5.6,8.4,8.1,8.4c1.9,0,3.6-0.3,5.2-0.9L121,48l-0.2-4.8L120.1,43.5z"/>
	<path class="st0" d="M141.5,17.4c-3.8,0-7.7,1.9-9.7,4.8c0-1.2-0.1-2.5-0.2-3.6l0-0.5h-5.1l0.1,0.5c0.2,1.8,0.2,4.6,0.2,6.4v23.5
		h5.3V33c0-7.6,4.2-11,8.5-11c5.2,0,7.5,3,7.5,9.8v16.8h5.3V30.1C153.2,22,149,17.4,141.5,17.4z"/>
	<path class="st0" d="M187.7,18.2v4.2c-2.5-3.1-6.5-5-10.8-5c-9.1,0-15.8,6.6-15.8,15.8c0,9.1,6.5,15.5,15.8,15.5
		c4.2,0,8.3-1.9,10.8-4.9v4.2c0,4.1-1.4,11.1-11,11.1c-4,0-8.5-2.1-10.9-5.2l-0.4-0.5l-3.8,4l0.3,0.3c3.6,3.8,9,6.1,14.5,6.1
		c15.3,0,16.5-12.2,16.5-15.9V18.2H187.7z M188.2,33c0,6.5-4.5,11-10.8,11c-7.3,0-10.7-5.7-10.7-11c0-5.3,3.3-11,10.7-11
		C183.5,22,188.2,26.8,188.2,33z"/>
</g>
</svg>
