<?xml version="1.0" encoding="utf-8"?>
<!-- Generator: Adobe Illustrator 25.2.1, SVG Export Plug-In . SVG Version: 6.00 Build 0)  -->
<svg version="1.1" id="Layer_1" xmlns="http://www.w3.org/2000/svg" xmlns:xlink="http://www.w3.org/1999/xlink" x="0px" y="0px"
	 viewBox="0 0 148 148" style="enable-background:new 0 0 148 148;" xml:space="preserve">
<style type="text/css">
	.st0{fill:none;}
	.st1{fill:url(#SVGID_1_);}
</style>
<circle class="st0" cx="74" cy="74" r="72.5"/>
<g>
	<circle class="st0" cx="74" cy="74" r="66"/>
	<path d="M74,0C33.1,0,0,33.1,0,74s33.1,74,74,74s74-33.1,74-74S114.9,0,74,0z M74,140c-36.4,0-66-29.6-66-66S37.6,8,74,8
		s66,29.6,66,66S110.4,140,74,140z"/>
</g>
<g>
	
		<linearGradient id="SVGID_1_" gradientUnits="userSpaceOnUse" x1="27.75" y1="76" x2="120.25" y2="76" gradientTransform="matrix(1 0 0 -1 0 150)">
		<stop  offset="0.5056" style="stop-color:#000000"/>
		<stop  offset="1" style="stop-color:#000000;stop-opacity:0.45"/>
	</linearGradient>
	<path class="st1" d="M105.2,70.9l-7.5-7.5l15.9-15.9C105.2,35.2,90.8,27,74.8,27c-26,0-47,21-47,47s21,47,47,47
		c21.8,0,40.2-14.9,45.5-35.1L105.2,70.9z M74.8,99.3c-14,0-25.3-11.3-25.3-25.3s11.3-25.3,25.3-25.3c10.2,0,19,6.1,23,14.8
		L81.8,79.3c4.5,3.1,9.6,5.4,15.1,6.7C92.8,94,84.3,99.3,74.8,99.3z"/>
	<g>
		<path d="M97.8,63.4c1.5,3.2,2.3,6.8,2.3,10.6c0,4.4-1.1,8.5-3,12.1c3.6,0.9,7.4,1.4,11.3,1.4c4.1,0,8.1-0.5,11.9-1.5l-15-15
			L97.8,63.4L97.8,63.4L97.8,63.4L97.8,63.4z"/>
	</g>
</g>
</svg>
