<?xml version="1.0" encoding="utf-8"?>
<!-- Generator: Adobe Illustrator 25.2.1, SVG Export Plug-In . SVG Version: 6.00 Build 0)  -->
<svg version="1.1" id="Layer_1" xmlns="http://www.w3.org/2000/svg" xmlns:xlink="http://www.w3.org/1999/xlink" x="0px" y="0px"
	 width="1122.1px" height="170.8px" viewBox="0 0 1122.1 170.8" style="enable-background:new 0 0 1122.1 170.8;"
	 xml:space="preserve">
<style type="text/css">
	.st0{clip-path:url(#SVGID_2_);}
	.st1{clip-path:url(#SVGID_4_);}
	.st2{fill:#ECCCD3;}
	.st3{fill:#8F2786;}
	.st4{fill:#7F248C;}
	.st5{fill:#5882EF;}
	.st6{fill:#5173EB;}
	.st7{fill:#CE534F;}
	.st8{fill:#C5425D;}
	.st9{fill:#A82C7E;}
	.st10{fill:#872689;}
	.st11{fill:url(#SVGID_5_);}
	.st12{fill:url(#SVGID_6_);}
	.st13{fill:url(#SVGID_7_);}
	.st14{fill:url(#SVGID_8_);}
	.st15{fill:#3481E7;}
	.st16{fill:#9F1C97;}
	.st17{fill:url(#SVGID_9_);}
	.st18{fill:url(#SVGID_10_);}
	.st19{fill:url(#SVGID_11_);}
	.st20{fill:url(#SVGID_12_);}
	.st21{fill:#601E95;}
	.st22{fill:url(#SVGID_13_);}
	.st23{fill:#78238E;}
	.st24{fill:#672093;}
	.st25{fill:url(#SVGID_14_);}
	.st26{fill:url(#SVGID_15_);}
	.st27{fill:url(#SVGID_16_);}
	.st28{fill:url(#SVGID_17_);}
	.st29{fill:url(#SVGID_18_);}
	.st30{fill:#C43F59;}
	.st31{fill:#982983;}
	.st32{fill:#FFFFFF;}
	.st33{fill:#A6192C;}
	.st34{fill:#D44412;}
	.st35{fill:#431CF9;}
	.st36{fill:#D83556;}
	.st37{fill:url(#SVGID_19_);}
	.st38{fill:url(#SVGID_20_);}
	.st39{fill:url(#SVGID_21_);}
	.st40{fill:url(#SVGID_22_);}
	.st41{fill:url(#SVGID_23_);}
	.st42{fill:url(#SVGID_24_);}
	.st43{fill:url(#SVGID_25_);}
	.st44{fill-rule:evenodd;clip-rule:evenodd;fill:#FFFFFF;}
	.st45{clip-path:url(#SVGID_27_);fill:#FFFFFF;}
	.st46{clip-path:url(#SVGID_29_);fill:#FFFFFF;}
	.st47{fill:#BC3D31;}
	.st48{fill:#75C456;}
</style>
<g>
	<defs>
		<rect id="SVGID_1_" y="0.2" width="1122.1" height="170.8"/>
	</defs>
	<clipPath id="SVGID_2_">
		<use xlink:href="#SVGID_1_"  style="overflow:visible;"/>
	</clipPath>
	<g class="st0">
		<g>
			<g>
				<defs>
					<rect id="SVGID_3_" x="395.6" y="-19" width="171.5" height="208.5"/>
				</defs>
				<clipPath id="SVGID_4_">
					<use xlink:href="#SVGID_3_"  style="overflow:visible;"/>
				</clipPath>
				<g class="st1">
					<path class="st2" d="M562.9-20.1c1.6,0,3.3,0,4.9,0c0.2,0,0.4,0.1,0.2,0.4v0.1c0,69.9,0,139.9,0,209.7c0,0.1,0,0.4-0.1,0.5
						v-0.1c0-1.1,0-2.1,0-3.2c0-2,0-3.9,0-5.9c0-2.8,0-5.5,0-8.3c0-0.2,0-0.4,0-0.6c0-36.7,0-73.3,0-110.1c0-0.2,0-0.4,0-0.6
						c0-2.6,0-5,0-7.6c0-4.8,0-9.5,0-14.3c0-0.2,0-0.5,0-0.7c0-7.7,0-15.4,0-23.2c0-0.2,0-0.4,0-0.6c0-0.1,0-0.2,0-0.4
						c0-10.6,0-21.2,0-31.9v-0.1c-0.1-0.1-0.1-0.4-0.2-0.5C566.1-18.3,564.5-19.1,562.9-20.1L562.9-20.1z"/>
					<path class="st2" d="M394.7,190.7C394.6,190.6,394.6,190.6,394.7,190.7c-0.1-0.2-0.1-0.4-0.1-0.5c0-69.9,0-139.9,0-209.7
						c0-0.1,0-0.4,0.1-0.5v0.1c0,0.2,0,0.4,0,0.6c0,9.6,0,19.4,0,29c0,0.2,0,0.4,0,0.6c0,0.1,0,0.4,0,0.5c0,11.7,0,23.3,0,35
						c0,0.2,0,0.4,0,0.6c0,0.1,0,0.4,0,0.5c0,9.3,0,18.4,0,27.7c0,0.1,0,0.2,0,0.5c0,0.1,0,0.2,0,0.5c0,8.7,0,17.2,0,25.9
						c0,0.1,0,0.2,0,0.5c0,3.1,0,6.2,0,9.3c0,2.1,0,4.1,0,6.2c0,3.3,0,6.6,0,9.9c0,2.3,0,4.5,0,6.8c0,2.7,0,5.5,0,8.2
						c0,0.1,0,0.2,0,0.4c0,7.7,0,15.5,0,23.2c0,0.1,0,0.2,0,0.4c0,0.2,0,0.5,0,0.7c0,4.9,0,9.9,0,14.8c0,0.2,0,0.5,0,0.7
						c0,0.1,0,0.2,0,0.4C394.7,185.2,394.7,187.9,394.7,190.7C394.7,190.6,394.7,190.6,394.7,190.7z"/>
					<path class="st3" d="M567.9,190.6L567.9,190.6c-17.3,0.1-34.7,0.1-52.1,0.1v-0.1c4.9,0,9.8,0,14.5,0c4.1,0,8.4,0,12.6,0
						C551.3,190.6,559.6,190.6,567.9,190.6z"/>
					<path class="st4" d="M394.7-20.1L394.7-20.1c17.2-0.1,34.5-0.1,51.7-0.1v0.1c-1.1,0-2.1,0-3.2,0c-3.9,0-7.8,0-11.7,0
						c-3.5,0-7,0-10.5,0c-4,0-7.9,0-12,0c-2.3,0-4.6,0-7,0C399.7-20,397.2-20,394.7-20.1z"/>
					<path class="st5" d="M489.7,190.7c-11.8,0-23.7,0-35.5,0c0,0,0,0,0-0.1c0.2,0,0.5,0,0.7,0c11.4,0,22.6,0,33.9,0
						c0.2,0,0.5,0,0.7,0C489.7,190.4,489.7,190.6,489.7,190.7C489.8,190.6,489.7,190.6,489.7,190.7z"/>
					<path class="st6" d="M562.9-20.1L562.9-20.1C553-20,543.3-20,533.4-20c-0.1,0-0.2-0.1-0.2-0.1C543-20.1,552.9-20.1,562.9-20.1z
						"/>
					<path class="st5" d="M485.4-20.1c6.5,0,13.1,0,19.5,0c0,0,0,0,0,0.1c-0.2,0-0.5,0-0.6,0c-6,0-12,0-17.9,0c-0.4,0-0.6,0-1,0
						C485.4-20,485.4-20,485.4-20.1L485.4-20.1z"/>
					<path class="st7" d="M485.4-20.1L485.4-20.1c-1.6,0.1-3.1,0.1-4.6,0.1c-4.9,0-9.9,0-14.8,0h-0.1v-0.1
						C472.3-20.1,478.9-20.1,485.4-20.1z"/>
					<path class="st5" d="M465.9-20.1L465.9-20.1c-0.2,0.1-0.4,0.1-0.6,0.1c-4.6,0-9.3,0-13.9,0c-1.6,0-3.2,0-4.8,0c0,0,0,0-0.1,0
						v-0.1C452.9-20.1,459.4-20.1,465.9-20.1z"/>
					<path class="st5" d="M451.1,190.7c-6.2,0-12.6,0-18.8,0c0,0,0,0,0-0.1c0.2,0,0.5,0,0.6,0c5.9,0,11.6,0,17.5,0
						c0.2,0,0.5,0,0.6,0C451.1,190.4,451.1,190.4,451.1,190.7C451.1,190.6,451.1,190.6,451.1,190.7z"/>
					<path class="st5" d="M429.9,190.7c-5.9,0-11.7,0-17.6,0v-0.1c0.2,0,0.5,0,0.7,0c5.6,0,11.2,0,16.8,0
						C429.8,190.6,429.9,190.6,429.9,190.7C429.9,190.6,429.9,190.6,429.9,190.7z"/>
					<path class="st4" d="M489.7,190.7C489.7,190.6,489.8,190.6,489.7,190.7c5.5-0.1,11-0.1,16.4-0.1v0.1
						C500.7,190.7,495.2,190.7,489.7,190.7z"/>
					<path class="st4" d="M505.1-20C505.1-20.1,505.1-20.1,505.1-20c5-0.1,10-0.1,15.1-0.1v0.1c-1.5,0-3.1,0-4.5,0
						C512-20,508.6-20,505.1-20L505.1-20z"/>
					<path class="st8" d="M412.3,190.6L412.3,190.6c-3.9,0.1-7.8,0.1-11.7,0.1v-0.1c0.4,0,0.9,0,1.2,0c3.4,0,6.8,0,10.3,0
						C412.1,190.6,412.2,190.6,412.3,190.6z"/>
					<path class="st5" d="M506.2,190.7v-0.1C506.2,190.6,506.2,190.6,506.2,190.7c3.2-0.1,6.5-0.1,9.6-0.1l0,0v0.1
						C512.6,190.7,509.4,190.7,506.2,190.7z"/>
					<path class="st5" d="M400.5,190.6L400.5,190.6c-2,0.1-3.9,0.1-5.7,0.1v-0.1C396.6,190.6,398.5,190.6,400.5,190.6L400.5,190.6z"
						/>
					<path class="st9" d="M451.1,190.7C451.1,190.6,451.1,190.6,451.1,190.7c1-0.1,2-0.1,2.9-0.1l0,0v0.1
						C453.2,190.7,452.1,190.7,451.1,190.7z"/>
					<path class="st10" d="M429.9,190.7C429.9,190.6,429.9,190.6,429.9,190.7c0.7-0.1,1.6-0.1,2.3-0.1c0,0,0,0,0.1,0v0.1
						C431.5,190.7,430.7,190.7,429.9,190.7z"/>
					
						<linearGradient id="SVGID_5_" gradientUnits="userSpaceOnUse" x1="520.1173" y1="162.1972" x2="567.9392" y2="162.1972" gradientTransform="matrix(1 0 0 -1 0 172)">
						<stop  offset="0" style="stop-color:#557DF0"/>
						<stop  offset="0.9972" style="stop-color:#3F54E8"/>
					</linearGradient>
					<path class="st11" d="M567.9,15.4c-0.5-0.9-1-1.7-1.3-2.7c-0.4-1.2-1-2.2-1.6-3.2c-1.6-2.8-3.1-5.6-4.5-8.7
						c-1.3-2.8-2.7-5.5-4.5-7.9c-1.8-2.6-4-4.9-6.6-6.3c-1.7-1-3.4-1.7-5.2-2.6c-3.5-1.3-7.1-2.7-10.6-4c-0.1,0-0.4-0.1-0.5-0.2
						c-0.1,0-0.2-0.1-0.2-0.1c-4.3,0-8.7,0-12.9,0v0.1c0.4,0.9,0.9,1.8,1.2,2.7c0.9,1.7,1.8,3.3,2.9,4.8c0.1,0.2,0.4,0.5,0.5,0.7
						c0.9,1.1,1.8,2.3,2.7,3.4c0.2,0.4,0.6,0.6,1,0.9c2.2,1.3,4.5,2.6,6.8,3.8c1.5,0.7,2.8,1.6,4.3,2.3c1.6,0.9,3.2,1.7,4.8,2.6
						c1.2,1,2.6,1.8,3.8,2.8c0.1,0.1,0.2,0.2,0.4,0.4c0.5,0.5,1.1,1,1.6,1.5c2.3,2.4,4.1,5.1,5.6,8.3c0.7,1.6,1.1,3.3,1.7,5
						c1.6,4.3,3.3,8.7,5,12.9c1,2.3,2.3,4.4,3.8,6.3c0.1,0.2,0.2,0.5,0.4,0.9c0.5,0.5,1,0.9,1.6,1c0-0.2,0-0.5,0-0.7
						c0-7.7,0-15.4,0-23.2C567.9,15.9,567.9,15.7,567.9,15.4z"/>
					
						<linearGradient id="SVGID_6_" gradientUnits="userSpaceOnUse" x1="533.325" y1="174.2187" x2="567.9435" y2="174.2187" gradientTransform="matrix(1 0 0 -1 0 172)">
						<stop  offset="0" style="stop-color:#3739C2"/>
						<stop  offset="0.9972" style="stop-color:#465DD4"/>
					</linearGradient>
					<path class="st12" d="M567.9-16.9c0-0.1-0.1-0.4-0.2-0.4v-2.8h-6.3v0.1c-9.4,0-18.8,0-28.1,0c0.1,0.1,0.4,0.1,0.5,0.2
						c3.5,1.3,7.1,2.7,10.6,4c1.7,0.9,3.5,1.6,5.2,2.6c2.6,1.5,4.6,3.8,6.6,6.3c1.7,2.4,3.2,5.1,4.5,7.9c1.3,2.9,2.8,5.9,4.5,8.7
						c0.6,1,1.1,2.1,1.6,3.2c0.4,1,0.9,1.8,1.3,2.7c0-0.1,0-0.2,0-0.4c0-10.6,0-21.2,0-31.9C567.9-16.8,567.9-16.9,567.9-16.9z"/>
					
						<linearGradient id="SVGID_7_" gradientUnits="userSpaceOnUse" x1="526.6562" y1="143.4022" x2="567.9553" y2="143.4022" gradientTransform="matrix(1 0 0 -1 0 172)">
						<stop  offset="0" style="stop-color:#B6367E"/>
						<stop  offset="1" style="stop-color:#B02446"/>
					</linearGradient>
					<path class="st13" d="M526.7,2.8c2.6,0.2,5.1,0.9,7.7,1.7c0.2,0.1,0.5,0.1,0.9,0.2c1,0.5,2.1,0.9,3.1,1.3
						c2.7,1.3,5.1,3.2,7.2,5.6c0.9,1,1.6,2.1,2.3,3.1c0.1,0.1,0.1,0.2,0.2,0.4c0,0.1,0,0.1,0.1,0.2c0.9,1.5,1.8,2.9,2.7,4.5
						c0.6,1,1.1,2,1.6,2.9c0.7,1.5,1.3,3.1,2.2,4.4c1.5,2.7,3.2,5,5.1,7.1c1.1,1.1,2.2,2.2,3.4,2.9c1.1,0.6,2.2,1.2,3.2,1.8
						c0.5,0.5,1,0.9,1.6,1c0,4.8,0,9.5,0,14.3c-1.6-0.9-3.2-1.7-4.8-2.6c-2.8-1.6-5.6-3.1-8.2-5.1c-2.3-1.8-4.3-4-6-6.7
						c-1.1-1.7-1.7-3.8-2.4-5.7c-1.5-4-2.9-8.2-4.3-12.2c-2.1-6.3-5.4-11.5-10.1-15.1c-0.1-0.1-0.4-0.2-0.5-0.2
						c-0.1-0.1-0.2-0.4-0.4-0.4c-1.3-0.9-2.6-1.6-3.9-2.4C527,3.3,526.9,3.1,526.7,2.8z"/>
					
						<linearGradient id="SVGID_8_" gradientUnits="userSpaceOnUse" x1="394.7082" y1="25.8722" x2="489.5377" y2="25.8722" gradientTransform="matrix(1 0 0 -1 0 172)">
						<stop  offset="0" style="stop-color:#6BA9FA"/>
						<stop  offset="1" style="stop-color:#4F71DE"/>
					</linearGradient>
					<path class="st14" d="M454.2,190.6L454.2,190.6c-0.1-0.1-0.1-0.2-0.1-0.2c-2.2-5.5-4.4-11.1-7-16.4c-1.2-2.6-2.6-5-4.1-7.2
						c-2-2.6-4.3-4.3-6.7-5.7c-3.2-1.7-6.3-3.3-9.5-4.9c-2.4-1.2-4.5-2.8-6.6-4.6c-3.3-2.9-5.9-6.5-7.4-11c-0.7-2.2-1.5-4.3-2.3-6.5
						c-1.6-3.8-3.2-7.6-4.8-11.4c-1-2.3-2.3-4.4-3.8-6.2c-2.1-2.3-4.4-4-6.8-5.5c0-3.1,0-6.2,0-9.3c2.4,0.7,4.8,1.8,7,3.3
						c1.6,1.1,3.2,2.6,4.5,4c0.5,0.6,1,1.2,1.5,2c2.2,2.8,3.9,6,5.4,9.4c1,2.1,1.8,4.3,2.8,6.3c1,2.1,2.1,4,3.4,5.7
						c0.1,0.1,0.1,0.2,0.2,0.4c1.7,2.2,3.5,4.3,5.7,5.9c1.6,1.2,3.2,2.2,4.9,2.9c0.2,0.1,0.5,0.2,0.7,0.4c2.3,0.9,4.6,1.6,7.1,2.4
						c0.6,0.2,1.2,0.6,2,0.7c4.9,1.2,9,4,12.4,8.3c2,2.3,3.5,4.9,5,7.7c0.9,1.8,1.7,3.7,2.6,5.5c0.1,0.4,0.4,0.7,0.5,1.1
						c0.5,1.1,0.9,2.2,1.3,3.3c2.1,4.5,4.8,8.2,8.4,10.7c2,1.5,4,2.4,6.2,3.4c2,0.9,4,1.6,6,2.3c1.1,0.4,2.1,0.7,3.2,1.2
						c1.3,0.6,2.7,1.2,4,1.8c-0.2,0-0.5,0-0.7,0c-11.4,0-22.6,0-33.9,0C454.6,190.6,454.4,190.6,454.2,190.6z"/>
					<path class="st15" d="M432.3,190.6C432.2,190.6,432.2,190.6,432.3,190.6c-0.1-0.1-0.2-0.2-0.2-0.4c-1.6-2.3-3.3-4.4-5.4-6.1
						c-3.1-2.4-6.2-4.4-9.5-6.2c-1.3-0.7-2.8-1.6-4.1-2.3c-0.1-0.1-0.2-0.1-0.4-0.2c-3.9-2.4-7.1-5.9-9.8-10.3
						c-0.2-0.4-0.4-0.9-0.6-1.2c-0.1-0.5-0.2-1.1-0.5-1.5c-0.4-1.1-1-2.1-1.3-3.2c-1.5-4.4-2.8-8.8-4.3-13.2c-0.5-1.3-1.1-2.7-1.6-4
						c0-2.7,0-5.5,0-8.2c0-2.3,0-4.5,0-6.8c0.6,0.7,1.3,1.5,2,2.3c2.3,3.5,4.1,7.4,6,11.5c1.6,3.4,3.2,7,5.2,10
						c3.4,5,7.8,8.4,13.2,9.6c0.1,0,0.2,0.1,0.4,0.2c0.2,0.1,0.5,0.4,0.7,0.5c2.8,1.1,5.6,2.1,8.4,3.2c4,1.5,7.3,4,10.3,7.6
						c2.1,2.6,3.7,5.6,5.1,8.7c1.6,3.4,2.8,7,4.9,10c-0.2,0-0.5,0-0.6,0c-5.9,0-11.6,0-17.5,0C432.7,190.6,432.4,190.6,432.3,190.6z
						"/>
					<path class="st16" d="M451,190.4c-2.1-3.1-3.3-6.6-4.9-10c-1.5-3.1-3.1-6.1-5.1-8.7c-2.9-3.5-6.3-6.1-10.3-7.6
						c-2.8-1-5.6-2.1-8.4-3.2c-0.2-0.1-0.5-0.4-0.7-0.5c-0.1-0.1-0.2-0.2-0.4-0.2c-5.4-1.2-9.6-4.5-13.2-9.6
						c-2.1-3.1-3.7-6.5-5.2-10c-1.8-3.9-3.7-7.9-6-11.5c-0.6-0.9-1.3-1.6-2-2.3c0-3.3,0-6.6,0-9.9c0-2.1,0-4.1,0-6.2
						c2.6,1.5,4.9,3.2,6.8,5.5c1.6,1.8,2.8,3.8,3.8,6.2c1.6,3.8,3.3,7.6,4.8,11.4c0.9,2.1,1.5,4.3,2.3,6.5c1.6,4.5,4.1,8.2,7.4,11
						c2.1,1.8,4.3,3.4,6.6,4.6c3.2,1.6,6.3,3.2,9.5,4.9c2.6,1.3,4.9,3.2,6.7,5.7c1.7,2.2,2.9,4.6,4.1,7.2c2.6,5.4,4.8,10.9,7,16.4
						c0,0.1,0,0.1,0.1,0.2C453.1,190.6,452.1,190.6,451,190.4C451.1,190.4,451.1,190.4,451,190.4z"/>
					
						<linearGradient id="SVGID_9_" gradientUnits="userSpaceOnUse" x1="394.6877" y1="-6.3478" x2="429.7725" y2="-6.3478" gradientTransform="matrix(1 0 0 -1 0 172)">
						<stop  offset="0" style="stop-color:#4661EA"/>
						<stop  offset="0.9916" style="stop-color:#6297F5"/>
					</linearGradient>
					<path class="st17" d="M412.3,190.6c-0.1,0-0.1,0-0.2,0c-0.9-0.4-1.8-0.6-2.7-1c-1.1-0.4-2.2-1-3.4-1.1
						c-2.2-0.4-4.3-1.2-6.2-2.4c-1.7-1.1-3.4-2.4-5-3.7c0-0.2,0-0.5,0-0.7c0-4.9,0-9.9,0-14.8c0-0.2,0-0.5,0-0.7
						c1.1,1.6,2.2,3.2,3.4,4.8c0.9,1.1,2,2.2,2.8,3.3c1.2,1.5,2.7,2.6,4.4,3.3c1.3,0.6,2.8,1.1,4.3,1.7c1.1,0.4,2.1,0.7,3.2,1.1
						c0.6,0.2,1.3,0.5,2,0.6c3.8,1.1,7.3,2.6,10.6,5.1c1.6,1.2,3.1,2.7,4.4,4.4c-5.6,0-11.2,0-16.8,0
						C412.7,190.6,412.4,190.6,412.3,190.6z"/>
					
						<linearGradient id="SVGID_10_" gradientUnits="userSpaceOnUse" x1="394.7248" y1="-14.3419" x2="412.0137" y2="-14.3419" gradientTransform="matrix(1 0 0 -1 0 172)">
						<stop  offset="0" style="stop-color:#CD535D"/>
						<stop  offset="1" style="stop-color:#B42535"/>
					</linearGradient>
					<path class="st18" d="M394.7,182.3c1.7,1.2,3.3,2.6,5,3.7c2,1.3,4,2.1,6.2,2.4c1.1,0.2,2.3,0.7,3.4,1.1c0.9,0.4,1.8,0.6,2.7,1
						c-3.4,0-6.8,0-10.3,0c-0.4,0-0.9,0-1.2,0h-0.1c-0.6-0.6-1.2-1.3-1.8-2c-1.6-1.8-2.8-3.8-3.9-6
						C394.7,182.4,394.7,182.3,394.7,182.3z"/>
					<path class="st15" d="M394.7,182.5c1.1,2.2,2.3,4.3,3.9,6c0.6,0.7,1.2,1.3,1.8,2c-2,0-3.8,0-5.7,0
						C394.7,187.9,394.7,185.2,394.7,182.5z"/>
					
						<linearGradient id="SVGID_11_" gradientUnits="userSpaceOnUse" x1="485.4936" y1="151.1521" x2="567.9964" y2="151.1521" gradientTransform="matrix(1 0 0 -1 0 172)">
						<stop  offset="0" style="stop-color:#4661EA"/>
						<stop  offset="0.9916" style="stop-color:#6297F5"/>
					</linearGradient>
					<path class="st19" d="M563.1,51.7c-2.8-1.6-5.6-3.1-8.2-5.1c-2.3-1.8-4.3-4-6-6.7c-1.1-1.7-1.7-3.8-2.4-5.7
						c-1.5-4-2.9-8.2-4.3-12.2c-2.1-6.3-5.4-11.5-10.1-15.1c-0.1-0.1-0.4-0.2-0.5-0.2c-0.1-0.1-0.2-0.4-0.4-0.4
						c-1.3-0.9-2.6-1.6-3.9-2.4c-0.2-0.1-0.5-0.5-0.7-0.7c-0.6-0.4-1.3-0.9-2-1.2c-0.2-0.1-0.5-0.2-0.7-0.4
						c-1.1-0.6-2.3-1.2-3.4-1.7c-1.7-0.9-3.4-1.7-4.9-2.9c-1.1-1-2.3-2-3.3-3.1c-3.1-3.2-5.1-7.3-6.6-11.8c-0.2-0.6-0.4-1.2-0.5-1.8
						c0,0,0,0-0.1,0c-0.2,0-0.5,0-0.6,0c-6,0-12,0-17.9,0c-0.4,0-0.6,0-1,0c0.9,1,1.8,2,2.6,2.9c0.5,0.6,0.9,1.2,1.2,1.8
						c0.6,0.9,1.2,1.7,1.7,2.7c1.5,3.1,2.9,6.1,4.4,9.2c1.5,3.1,2.9,6.2,4.9,8.9c1.2,1.6,2.6,3.2,4,4.4c2.8,2.4,5.9,4,9.2,5.1
						c3.2,1.1,6.3,2.2,9.5,3.4c0.6,0.2,1.1,0.5,1.6,0.7c2.3,1.1,4.4,2.4,6.3,4.3c0.1,0.1,0.2,0.2,0.4,0.2c0-0.1,0-0.4,0.1-0.5
						c0,0.1,0,0.4-0.1,0.5c0.6,0.6,1.2,1.2,1.7,2c0.9,1.3,1.6,2.8,2.4,4.1c1.8,3.3,3.8,6.5,5.1,10.1c1.5,3.9,3.7,7.3,6.2,10.4
						c0.9,1,1.7,1.8,2.7,2.8c0.1,0.1,0.2,0.1,0.4,0.2c2.1,1.8,4.4,3.3,6.8,4.1c3.8,1.3,7.6,2.8,11.4,4.1c0-2.6,0-5,0-7.6
						C566.3,53.4,564.7,52.5,563.1,51.7z"/>
					
						<linearGradient id="SVGID_12_" gradientUnits="userSpaceOnUse" x1="446.5883" y1="146.9415" x2="539.8313" y2="146.9415" gradientTransform="matrix(1 0 0 -1 0 172)">
						<stop  offset="0" style="stop-color:#5883F1"/>
						<stop  offset="0.9916" style="stop-color:#6CA6F8"/>
					</linearGradient>
					<path class="st20" d="M466.1-20c1.2,0.7,2.4,1.7,3.8,2.3c2.9,1.6,5.9,3.2,8.9,4.6c4.5,2.3,7.8,6.2,10.3,11.4
						c0,0.1,0.1,0.2,0.1,0.4c0.2,0.6,0.5,1.2,0.7,1.8c1.1,3.1,2.2,6.1,3.4,9c1.1,3.1,2.2,6.1,3.8,8.8c0.9,1.6,2,2.9,2.9,4.4
						c1.3,1.7,2.9,3.2,4.5,4.4c3.1,2.3,6.5,3.5,9.6,5.4c1.6,0.9,3.3,1.6,4.9,2.4c2,1,3.7,2.3,5.4,3.9c0.1,0.1,0.2,0.2,0.4,0.4
						c2.9,2.9,5.2,6.3,7,10.5c1.1,2.6,2.2,5.2,3.2,7.8c0.5,1.1,0.9,2.2,1.3,3.3c1.1,2.8,2.3,5.7,3.4,8.5c-0.1,0.2-0.4,0.5-0.5,0.7
						c-0.1-0.1-0.1-0.2-0.2-0.2c-1.2-2-2.6-3.8-3.8-5.7c-0.1-0.2-0.2-0.5-0.4-0.6c-2.2-3.2-4-6.7-5.6-10.4c-2-4.8-4.5-9-8.2-12.1
						c-1.2-1.1-2.7-2.1-4.1-2.8c-2.7-1.2-5.2-2.2-7.9-3.3c-1.8-0.7-3.7-1.3-5.5-2c-0.1,0-0.1-0.1-0.2-0.1c-3.7-1.3-7.1-3.5-9.9-6.7
						c-1.5-1.6-2.6-3.3-3.8-5.1c-1.2-2.4-2.4-4.9-3.7-7.4c-1.1-2.2-2-4.4-3.1-6.5c-3.2-6.3-7.6-11-13.4-13.5c-2.2-1-4.4-1.6-6.6-2.3
						c-3.5-1.2-7.1-2.6-10.4-4.6c-1.7-1.1-3.3-2.4-5-3.8c-0.4-0.9-0.6-1.8-1-2.7c1.6,0,3.2,0,4.8,0c4.6,0,9.3,0,13.9,0
						c0.2,0,0.5,0,0.6,0C466-20,466-20,466.1-20z"/>
					<path class="st21" d="M431.9,190.1c-1.6-2.3-3.3-4.4-5.4-6.1c-3.1-2.4-6.2-4.4-9.5-6.2c-1.3-0.7-2.8-1.6-4.1-2.3
						c-0.1-0.1-0.2-0.1-0.4-0.2c-3.9-2.4-7.1-5.9-9.8-10.3c-0.2-0.4-0.4-0.9-0.6-1.2c-0.1-0.5-0.2-1.1-0.5-1.5
						c-0.4-1.1-1-2.1-1.3-3.2c-1.5-4.4-2.8-8.8-4.3-13.2c-0.5-1.3-1.1-2.7-1.6-4c0,0.1,0,0.2,0,0.4c0,7.7,0,15.5,0,23.2
						c0,0.1,0,0.2,0,0.4c1.1,1.6,2.2,3.2,3.4,4.8c0.9,1.1,2,2.2,2.8,3.3c1.2,1.5,2.7,2.6,4.4,3.3c1.3,0.6,2.8,1.1,4.3,1.7
						c1.1,0.4,2.1,0.7,3.2,1.1c0.6,0.2,1.3,0.5,2,0.6c3.8,1.1,7.3,2.6,10.6,5.1c1.6,1.2,3.1,2.7,4.4,4.4h0.1
						C430.4,190.1,431.2,190.1,431.9,190.1C432.1,190.3,432.1,190.2,431.9,190.1z"/>
					<path class="st15" d="M496.5,181.9c-1.7-0.9-3.4-1.6-5.2-1.8c-2.6-0.4-5-0.7-7.6-1.1c-0.4,0-0.9-0.1-1.2-0.1
						c-0.1,0-0.1,0-0.2-0.1c-0.1-0.1-0.1-0.1-0.2-0.2c-2-1.1-3.8-2.2-5.7-3.3c-3.8-2.1-7.1-4.9-9.8-8.7c-2-2.8-3.4-6-4.5-9.4
						c-0.6-1.7-1.2-3.5-1.8-5.2c-0.9-2.3-1.6-4.8-2.4-7.1c-1.3-3.4-3.2-6.3-5.4-9c-1.2-1.5-2.6-2.7-4-3.7c-3.3-2.2-6.7-3.9-10.3-5.7
						c-0.2-0.1-0.4-0.2-0.6-0.4c-1.8-1-3.8-1.8-5.5-3.3c-0.5-0.5-1-0.9-1.6-1.2c-0.9-1-1.8-1.8-2.7-2.8c-2.9-3.5-5-7.7-6.6-12.3
						c-0.6-1.6-1.1-3.3-1.6-4.9c-0.6-1.8-1.2-3.8-1.8-5.5c-1.2-3.2-2.7-6-4.6-8.5c-0.2-0.4-0.1-0.6-0.1-1c0.1,0,0.2,0.1,0.4,0.1
						c1.7,1.1,3.3,2.6,4.8,4.1c2.6,2.9,4.5,6.3,6.2,10c1.7,3.8,3.7,7.6,5.5,11.4c1,1.8,2.1,3.5,3.4,5c0.1,0.1,0.2,0.4,0.4,0.5
						c1.6,1.6,3.2,2.9,5,4.1c2.3,1.5,4.8,2.3,7.3,2.9c1,0.4,1.8,0.9,2.8,1.2c2.9,1.1,5.9,2.1,8.7,3.7c3.2,1.8,5.9,4.4,8.2,7.7
						c0.6,1,1.2,2,1.8,2.8c0,0.1,0.1,0.2,0.1,0.4c1.2,2.6,2.4,5.1,3.8,7.7c1,2,1.8,4,2.9,5.9c1.6,2.8,3.3,5.5,5.4,7.6
						c1.3,1.3,2.8,2.6,4.5,3.5c0.9,0.5,1.6,1,2.4,1.3c2.3,1,4.5,1.7,6.8,2.6c1.8,0.7,3.8,1.3,5.6,2.1c0.1,0,0.1,0.1,0.2,0.1
						c3.4,1.2,6.5,3.3,9.2,6.1c0.9,0.9,1.6,1.7,2.2,2.7c1,1.7,1.8,3.5,2.8,5.4c0.9,1.6,1.6,3.3,2.4,4.9c0,0.1,0.1,0.2,0.1,0.4
						c-3.2,0-6.5,0-9.6,0c-0.5-0.6-1.1-1.3-1.6-2l-0.1-0.1c0,0,0,0-0.1-0.1c-2.2-2.6-4.6-4.6-7.3-6.2c-0.1,0-0.2,0-0.4-0.1l0,0
						l-0.1-0.1l0,0C496.5,181.9,496.5,181.9,496.5,181.9z"/>
					
						<linearGradient id="SVGID_13_" gradientUnits="userSpaceOnUse" x1="505.0997" y1="162.5023" x2="566.3055" y2="162.5023" gradientTransform="matrix(1 0 0 -1 0 172)">
						<stop  offset="0" style="stop-color:#4A1A9D"/>
						<stop  offset="0.9972" style="stop-color:#79228D"/>
					</linearGradient>
					<path class="st22" d="M566,38.2c-1.5-2-2.9-4-3.8-6.3c-1.7-4.3-3.3-8.5-5-12.9c-0.6-1.6-1-3.4-1.7-5c-1.5-3.2-3.3-6-5.6-8.3
						c-0.5-0.5-1-1-1.6-1.5c-0.1-0.1-0.2-0.2-0.4-0.4c-1.2-1-2.6-1.8-3.8-2.8c-1.6-0.9-3.2-1.7-4.8-2.6c-1.5-0.7-2.8-1.6-4.3-2.3
						c-2.3-1.2-4.5-2.6-6.8-3.8c-0.4-0.2-0.6-0.5-1-0.9c-0.9-1.1-1.8-2.3-2.7-3.4c-0.1-0.2-0.4-0.5-0.5-0.7
						c-1.1-1.5-2.2-3.1-2.9-4.8c-0.4-0.9-0.9-1.8-1.2-2.7c-1.5,0-3.1,0-4.5,0c-3.5,0-7,0-10.5,0c0.1,0.6,0.4,1.2,0.5,1.8
						c1.5,4.5,3.5,8.5,6.6,11.8c1,1.1,2.2,2,3.3,3.1c1.6,1.2,3.2,2.1,4.9,2.9c1.1,0.6,2.3,1.2,3.4,1.7c0.2,0.1,0.5,0.2,0.7,0.4
						c0.6,0.4,1.3,0.9,2,1.2c2.6,0.2,5.1,0.9,7.7,1.7c0.2,0.1,0.5,0.1,0.9,0.2c1,0.5,2.1,0.9,3.1,1.3c2.7,1.3,5.1,3.2,7.2,5.6
						c0.9,1,1.6,2.1,2.3,3.1c0.1,0.1,0.1,0.2,0.2,0.4c0,0.1,0,0.1,0.1,0.2c0.9,1.5,1.8,2.9,2.7,4.5c0.6,1,1.1,2,1.6,2.9
						c0.7,1.5,1.3,3.1,2.2,4.4c1.5,2.7,3.2,5,5.1,7.1c1.1,1.1,2.2,2.2,3.4,2.9c1.1,0.6,2.2,1.2,3.2,1.8
						C566.2,38.7,566.2,38.4,566,38.2z"/>
					<path class="st9" d="M564.6,154.1C564.6,154.1,564.7,154.1,564.6,154.1C564.7,154.1,564.6,154.1,564.6,154.1L564.6,154.1z"/>
					<path class="st15" d="M530.4,179.9c-0.2-0.2-0.5-0.5-0.7-0.7c-0.1-0.1-0.1-0.1-0.2-0.2c-0.5-0.7-0.9-1.5-1.3-2.1
						c-2.3-3.1-4.6-6.1-7.1-9c-1.2-1.6-2.4-3.2-3.7-4.6c-1.2-1.5-2.4-2.7-3.9-3.7c-1.5-1.1-3.1-2.1-4.6-2.7
						c-3.2-1.2-6.6-1.5-9.9-1.8c-0.9-0.1-1.7-0.1-2.6-0.2c-1.6-0.1-3.1-0.4-4.6-0.6c-1.2-0.1-2.3-0.5-3.5-0.7
						c-0.2-0.2-0.5-0.6-0.7-0.7c-4.6-3.2-8.1-7.6-10.3-13.3c-1.7-4.3-3.3-8.5-5-12.8c-2.3-6-5.7-10.5-10.4-13.7
						c-2.8-1.8-5.7-3.1-8.7-4.5c-1.5-0.7-2.9-1.5-4.4-2.2c-5.6-2.7-9.9-7.1-12.8-13.5c-0.9-1.8-1.6-3.8-2.3-5.7
						c-0.6-1.7-1.2-3.3-1.8-5c-1.5-3.8-2.9-7.4-5.1-10.7c-0.5-0.7-1-1.3-1.3-2.1c0.2,0.1,0.6,0.1,0.9,0.2c0.6,0.4,1.1,0.7,1.7,1.1
						c0.1,0.1,0.2,0.2,0.5,0.4c1.8,1.8,3.5,4,4.9,6.5c1.7,3.2,3.3,6.5,4.9,9.8c1.2,2.4,2.4,5,3.9,7.2c0.1,0.1,0.1,0.2,0.2,0.5
						c2,3.3,4.3,6,7.3,7.7c3.5,2.1,7.3,3.7,11.1,4.9c3.3,1,6.6,2.2,9.5,4.3c4.3,2.9,7.7,6.8,10.1,12.1c1.7,3.5,3.3,7.2,5,10.7
						c1,2,2.2,3.5,3.3,5.4c0,0.1,0.1,0.1,0.1,0.2c2.3,3.2,5.1,5.5,8.3,7.2c2.8,1.5,5.6,2.4,8.5,3.4c1.8,0.6,3.7,1.3,5.4,2
						c0.1,0.1,0.2,0.1,0.4,0.2c2.4,1.1,4.9,2.3,6.8,4.4c1.7,1.8,3.3,3.8,5,5.7c0.1,0.1,0.1,0.2,0.1,0.2c2,4.1,3.9,8.2,6,12.3
						c0.5,1.1,1.2,2.1,1.8,3.1c0.2,0.5,0.6,1,0.9,1.6c0.2,0.5,0.6,1,0.9,1.5c0.2,0.6,0.6,1.1,0.9,1.7l0,0c-0.7-0.9-1.5-1.7-2.1-2.6
						C531,180.8,530.8,180.3,530.4,179.9z"/>
					<path class="st23" d="M531.9,180.5c0.4,0.1,0.7,0.1,1.1,0.2c-0.1,0.5-0.1,0.9-0.2,1.3C532.5,181.5,532.1,181,531.9,180.5z"/>
					<path class="st15" d="M533.6,183.7L533.6,183.7L533.6,183.7L533.6,183.7z"/>
					<path class="st10" d="M547.3,168c0.1,0.1,0.2,0.1,0.2,0.2C547.3,168.3,547.3,168.2,547.3,168z"/>
					<path class="st24" d="M442.3,57c-0.1-0.1-0.2-0.4-0.4-0.5C442.2,56.5,442.3,56.7,442.3,57z"/>
					<path class="st4" d="M504.7,188.6l-0.1-0.1c0,0,0,0-0.1-0.1c-2.2-2.6-4.6-4.6-7.3-6.2c-0.1,0-0.2,0-0.4-0.1l0,0l-0.1-0.1l0,0
						l-0.1-0.1c-1.7-0.9-3.4-1.6-5.2-1.8c-2.6-0.4-5-0.7-7.6-1.1c-0.4,0-0.9-0.1-1.2-0.1c-0.1,0-0.1,0-0.2-0.1
						c-1.6-0.1-3.3-0.1-4.9-0.4c-2.9-0.4-5.6-1.3-8.2-2.9c-2.6-1.5-4.8-3.7-7-6c-0.6-0.6-1.2-1.2-1.8-1.8c0.5,1.1,0.9,2.2,1.3,3.3
						c2.1,4.5,4.8,8.2,8.4,10.7c2,1.5,4,2.4,6.2,3.4c2,0.9,4,1.6,6,2.3c1.1,0.4,2.1,0.7,3.2,1.2c1.3,0.6,2.7,1.2,4,1.8
						c0.1,0,0.1,0,0.2,0c5.5,0,11,0,16.4,0l0,0C505.7,189.8,505.2,189.2,504.7,188.6z"/>
					<path class="st4" d="M496.5,181.9l0.1,0.1C496.5,181.9,496.5,181.9,496.5,181.9z"/>
					<path class="st4" d="M504.6,188.5l0.1,0.1C504.6,188.5,504.6,188.5,504.6,188.5z"/>
					<path class="st4" d="M496.6,182C496.6,182,496.8,182,496.6,182C496.8,182,496.6,182,496.6,182z"/>
					<path class="st15" d="M539.8,69.2c0.9,1.1,1.7,2.2,2.4,3.3c0,0,0,0,0,0.1c-1-0.9-2-1.8-2.9-2.7
						C539.5,69.7,539.6,69.5,539.8,69.2z"/>
					<path class="st15" d="M542.5,72.8C542.5,72.8,542.4,72.7,542.5,72.8C542.4,72.7,542.4,72.7,542.5,72.8
						C542.4,72.7,542.4,72.8,542.5,72.8L542.5,72.8z"/>
					<path class="st15" d="M542.3,72.5c0,0,0,0.1,0.1,0.1L542.3,72.5C542.4,72.7,542.3,72.7,542.3,72.5
						C542.3,72.7,542.3,72.5,542.3,72.5z"/>
					<path class="st15" d="M542.5,72.8L542.5,72.8L542.5,72.8L542.5,72.8L542.5,72.8z"/>
					<path class="st7" d="M545.5,166.8l-0.1-0.1C545.5,166.6,545.5,166.8,545.5,166.8z"/>
					
						<linearGradient id="SVGID_14_" gradientUnits="userSpaceOnUse" x1="394.6933" y1="59.3737" x2="488.0583" y2="59.3737" gradientTransform="matrix(1 0 0 -1 0 172)">
						<stop  offset="0" style="stop-color:#BB2E48"/>
						<stop  offset="0.9972" style="stop-color:#B63479"/>
					</linearGradient>
					<path class="st25" d="M487.4,153c-4.6-3.2-8.1-7.6-10.3-13.3c-1.7-4.3-3.3-8.5-5-12.8c-2.3-6-5.7-10.5-10.4-13.7
						c-2.8-1.8-5.7-3.1-8.7-4.5c-1.5-0.7-2.9-1.5-4.4-2.2c-5.6-2.7-9.9-7.1-12.8-13.5c-0.9-1.8-1.6-3.8-2.3-5.7
						c-0.6-1.7-1.2-3.3-1.8-5c-1.5-3.8-2.9-7.4-5.1-10.7c-0.5-0.7-1-1.3-1.3-2.1c-0.5-1-1-2-2-2.4c-1-0.6-2-1.1-2.8-1.7
						c-2.8-1.5-5.6-2.8-8.3-4.4c-2-1.2-4.1-2-6.1-2.9c-1-0.6-2-1.2-2.9-2c-3.2-2.2-5.9-5.1-7.8-8.9c-0.1-0.2-0.2-0.5-0.5-0.7
						c0,0.1,0,0.4,0,0.5c0,9.3,0,18.4,0,27.7c0,0.1,0,0.2,0,0.5c0,0.1,0,0.2,0,0.5c0,8.7,0,17.2,0,25.9c0,0.1,0,0.2,0,0.5
						c2.4,0.7,4.8,1.8,7,3.3c1.6,1.1,3.2,2.6,4.5,4c0.5,0.6,1,1.2,1.5,2c2.2,2.8,3.9,6,5.4,9.4c1,2.1,1.8,4.3,2.8,6.3
						c1,2.1,2.1,4,3.4,5.7c0.1,0.1,0.1,0.2,0.2,0.4c1.7,2.2,3.5,4.3,5.7,5.9c1.6,1.2,3.2,2.2,4.9,2.9c0.2,0.1,0.5,0.2,0.7,0.4
						c2.3,0.9,4.6,1.6,7.1,2.4c0.6,0.2,1.2,0.6,2,0.7c4.9,1.2,9,4,12.4,8.3c2,2.3,3.5,4.9,5,7.7c0.9,1.8,1.7,3.7,2.6,5.5
						c0.1,0.4,0.4,0.7,0.5,1.1c0.6,0.6,1.2,1.2,1.8,1.8c2.1,2.3,4.3,4.5,7,6c2.6,1.6,5.4,2.6,8.2,2.9c1.6,0.2,3.3,0.2,4.9,0.4
						c-0.1-0.1-0.1-0.1-0.2-0.2c-2-1.1-3.8-2.2-5.7-3.3c-3.8-2.1-7.1-4.9-9.8-8.7c-2-2.8-3.4-6-4.5-9.4c-0.6-1.7-1.2-3.5-1.8-5.2
						c-0.9-2.3-1.6-4.8-2.4-7.1c-1.3-3.4-3.2-6.3-5.4-9c-1.2-1.5-2.6-2.7-4-3.7c-3.3-2.2-6.7-3.9-10.3-5.7c-0.2-0.1-0.4-0.2-0.6-0.4
						c-1.8-1-3.8-1.8-5.5-3.3c-0.5-0.5-1-0.9-1.6-1.2c-0.9-1-1.8-1.8-2.7-2.8c-2.9-3.5-5-7.7-6.6-12.3c-0.6-1.6-1.1-3.3-1.6-4.9
						c-0.6-1.8-1.2-3.8-1.8-5.5c-1.2-3.2-2.7-6-4.6-8.5c-0.2-0.4-0.1-0.6-0.1-1c0.1,0,0.2,0.1,0.4,0.1c1.7,1.1,3.3,2.6,4.8,4.1
						c2.6,2.9,4.5,6.3,6.2,10c1.7,3.8,3.7,7.6,5.5,11.4c1,1.8,2.1,3.5,3.4,5c0.1,0.1,0.2,0.4,0.4,0.5c1.6,1.6,3.2,2.9,5,4.1
						c2.3,1.5,4.8,2.3,7.3,2.9c1.5,0,3.1,0.1,4.5,0.2c0.9,0,1.7,0.1,2.6,0.2c2.6,0.5,5,1.5,7.3,2.9c2.8,1.8,5.1,4.4,7.3,7.3
						c0.5,0.6,1.1,1.3,1.6,2c1.3,1.7,2.7,3.4,4,5c1.5,1.8,3.1,3.7,4.6,5.5c1.8,2.2,4,3.7,6.3,4.8c0.1,0,0.4,0.1,0.5,0.1
						c1.1,0.2,2.3,0.6,3.4,0.9C487.8,153.5,487.6,153.1,487.4,153z"/>
					
						<linearGradient id="SVGID_15_" gradientUnits="userSpaceOnUse" x1="441.7173" y1="29.2285" x2="568.0346" y2="29.2285" gradientTransform="matrix(1 0 0 -1 0 172)">
						<stop  offset="0" style="stop-color:#B92F7A"/>
						<stop  offset="1" style="stop-color:#691F92"/>
					</linearGradient>
					<path class="st26" d="M567.9,181.4c0-2.8,0-5.5,0-8.3c-0.9-0.2-1.8-0.5-2.7-0.7c-1.7-0.4-3.4-0.6-5.2-1c-1.3-0.2-2.7-0.5-4-0.6
						c-2.2-0.4-4.5-0.7-6.6-1.7c-0.6-0.2-1.2-0.6-1.8-0.9c-0.2,0.2-0.2,0-0.2-0.2c-0.1,0-0.2,0-0.2-0.1c-0.2,0-0.5,0-0.6-0.2
						c-0.4-0.2-0.6-0.6-0.9-1l-0.1-0.1l0,0c-0.5-0.4-1-0.7-1.5-1.2c-2.1-1.8-4.3-3.5-6-5.9c-1.3-2-2.7-4-4-6
						c-0.7-1.1-1.5-2.1-2.2-3.2c-1.3-1.8-2.7-3.8-4.1-5.5c-2-2.4-4.3-4.3-7-5.5c-2.7-1.3-5.5-2-8.3-2.3c-0.5,0-0.9-0.1-1.3-0.1
						c-2.9-0.4-5.9-0.7-8.8-1.6c-3.2-0.9-6.1-2.3-8.8-4.5c-0.7-0.7-1.5-1.6-2.2-2.4c-0.9-1.1-1.7-2.2-2.6-3.3
						c-0.9-1.1-1.6-2.2-2.4-3.4c-1.5-2-2.8-3.9-4.3-6c-1.5-2.1-2.8-4.1-4.5-6c-2.1-2.2-4.5-3.9-7.1-5.2c-0.1,0-0.1-0.1-0.2-0.1
						c-2.4-1.1-5-1.7-7.7-2.1c-2.4-0.4-4.9-0.9-7.3-1.3c-2.2-0.4-4.3-1-6.3-2.1c-2.1-1.1-4-2.3-6-3.4c-0.4-0.2-0.9-0.4-1.2-0.6
						c0.1,0.1,0.1,0.2,0.2,0.5c2,3.3,4.3,6,7.3,7.7c3.5,2.1,7.3,3.7,11.1,4.9c3.3,1,6.6,2.2,9.5,4.3c4.3,2.9,7.7,6.8,10.1,12.1
						c1.7,3.5,3.3,7.2,5,10.7c1,2,2.2,3.5,3.3,5.4c0,0.1,0.1,0.1,0.1,0.2c2.3,3.2,5.1,5.5,8.3,7.2c2.8,1.5,5.6,2.4,8.5,3.4
						c1.8,0.6,3.7,1.3,5.4,2c0.1,0.1,0.2,0.1,0.4,0.2c2.4,1.1,4.9,2.3,6.8,4.4c1.7,1.8,3.3,3.8,5,5.7c0.1,0.1,0.1,0.2,0.1,0.2
						c2,4.1,3.9,8.2,6,12.3c0.5,1.1,1.2,2.1,1.8,3.1c0.2,0.5,0.6,1,0.9,1.6c0.4,0.1,0.7,0.1,1.1,0.2c-0.1,0.5-0.1,0.9-0.2,1.3
						c0.2,0.6,0.6,1.1,0.9,1.7c0,0,0,0,0,0.1c0,0,0,0-0.1,0c-0.7-0.9-1.5-1.7-2.1-2.6c-0.4-0.4-0.7-0.9-1-1.2
						c-0.2-0.2-0.5-0.5-0.7-0.7c-0.1-0.1-0.1-0.1-0.2-0.2c-0.5-0.7-0.9-1.5-1.3-2.1c-2.3-3.1-4.6-6.1-7.1-9
						c-1.2-1.6-2.4-3.2-3.7-4.6c-1.2-1.5-2.4-2.7-3.9-3.7c-1.5-1.1-3.1-2.1-4.6-2.7c-3.2-1.2-6.6-1.5-9.9-1.8
						c-0.9-0.1-1.7-0.1-2.6-0.2c-1.6-0.1-3.1-0.4-4.6-0.6c-1.2-0.1-2.3-0.5-3.5-0.7c-1.1-0.2-2.3-0.6-3.4-0.9
						c-0.1,0-0.4-0.1-0.5-0.1c-2.3-1.1-4.5-2.6-6.3-4.8c-1.6-1.8-3.1-3.7-4.6-5.5c-1.3-1.7-2.7-3.4-4-5c-0.5-0.6-1.1-1.3-1.6-2
						c-2.2-2.8-4.5-5.5-7.3-7.3c-2.3-1.5-4.8-2.4-7.3-2.9c-0.9-0.1-1.7-0.2-2.6-0.2c-1.5-0.1-3.1-0.1-4.5-0.2c1,0.4,1.8,0.9,2.8,1.2
						c2.9,1.1,5.9,2.1,8.7,3.7c3.2,1.8,5.9,4.4,8.2,7.7c0.6,1,1.2,2,1.8,2.8c0,0.1,0.1,0.2,0.1,0.4c1.2,2.6,2.4,5.1,3.8,7.7
						c1,2,1.8,4,2.9,5.9c1.6,2.8,3.3,5.5,5.4,7.6c1.3,1.3,2.8,2.6,4.5,3.5c0.9,0.5,1.6,1,2.4,1.3c2.3,1,4.5,1.7,6.8,2.6
						c1.8,0.7,3.8,1.3,5.6,2.1l0,0c0.1,0,0.1,0.1,0.2,0.1c3.4,1.2,6.5,3.3,9.2,6.1c0.9,0.9,1.6,1.7,2.2,2.7c1,1.7,1.8,3.5,2.8,5.4
						c0.9,1.6,1.6,3.3,2.4,4.9c0,0.1,0.1,0.2,0.1,0.4l0,0c4.9,0,9.8,0,14.5,0c4.1,0,8.4,0,12.6,0c8.3,0,16.6,0,24.9,0
						c0-1.1,0-2.1,0-3.2c-0.9-0.6-1.8-1.1-2.8-1.6c1,0.5,1.8,1,2.8,1.6C567.9,185.3,567.9,183.4,567.9,181.4z"/>
					
						<linearGradient id="SVGID_16_" gradientUnits="userSpaceOnUse" x1="394.6028" y1="83.8527" x2="545.2955" y2="83.8527" gradientTransform="matrix(1 0 0 -1 0 172)">
						<stop  offset="0" style="stop-color:#B52739"/>
						<stop  offset="1" style="stop-color:#D55B4F"/>
					</linearGradient>
					<path class="st27" d="M545.2,166c-1.1-2.1-2.1-4-3.2-6.1c-2-3.8-3.9-7.7-5.7-11.5c-0.4-0.7-0.7-1.5-1.1-2.2
						c-0.4-0.9-0.9-1.6-1.2-2.4c-1-1-1.8-2-2.8-2.9c-2.4-2.6-5.2-4.5-8.3-5.7c-3.4-1.2-6.8-2.6-10.3-3.8c-0.1,0-0.2,0-0.4-0.1v-0.1
						c-1.3-0.6-2.8-1-4.1-1.7c-2.6-1.3-4.9-3.1-6.8-5.5c-0.9-1-1.6-2.1-2.4-3.2c-0.4-0.6-0.7-1.1-1.1-1.7c-0.7-1.3-1.3-2.7-2.1-4
						c-0.2-0.5-0.2-1-0.4-1.5c-0.2-0.4-0.6-0.6-0.9-1c-0.6-1.1-1.1-2.3-1.6-3.4c-1.2-2.6-2.3-5.2-3.9-7.6c-0.5-0.9-1.1-1.6-1.7-2.4
						c-0.1-0.1-0.2-0.4-0.4-0.5c-0.7-0.7-1.5-1.5-2.2-2.2c-2.4-2.3-5-4-7.9-5.1c-0.1,0-0.2-0.1-0.4-0.1c-1.8-0.6-3.8-1.3-5.6-2
						c-0.2-0.1-0.4-0.1-0.6-0.2c-1.2-0.5-2.4-1-3.5-1.5c-0.1-0.1-0.4-0.1-0.5-0.2c-2-0.7-3.9-1.5-5.7-2.9c-2.2-1.8-4.3-3.8-6.2-6.1
						c-0.1-0.2-0.4-0.4-0.5-0.6c-0.4-0.6-0.9-1.2-1.2-1.8c-1.1-2.2-2.2-4.4-3.3-6.6c-1.3-2.6-2.6-5.2-4-7.8
						c-0.7-1.3-1.8-2.7-2.7-3.9c-0.1-0.1-0.2-0.4-0.4-0.5c-0.1-0.1-0.2-0.4-0.4-0.5c-1.2-1.5-2.4-2.9-3.7-4.4
						c-0.7-1-1.7-1.7-2.8-2.1c-1.3-0.5-2.6-1.1-3.9-1.7c-0.2-0.1-0.4-0.1-0.6-0.2c-1-0.4-2-0.7-2.9-1.2c-1.1-0.5-2.1-0.9-3.2-1.3
						c-1.2-0.5-2.6-1-3.8-1.6c-2.2-0.7-4.3-1.8-6.2-3.2c-2.1-1.5-3.9-3.2-5.5-5.2c-0.1-0.1-0.1-0.2-0.2-0.4c-1.5-1.8-2.4-3.9-3.5-6
						c-0.7-1.5-1.5-2.8-2.2-4.3c-0.1-0.2-0.2-0.6-0.2-0.9c0-0.2-0.1-0.4-0.1-0.6c-0.9-1.7-1.6-3.5-2.4-5.2c-1.6-3.1-3.4-5.9-5.7-8.2
						c0,0.1,0,0.4,0,0.5c0,11.7,0,23.3,0,35c0,0.2,0,0.4,0,0.6c0.1,0.2,0.4,0.5,0.5,0.7c2,3.8,4.6,6.7,7.8,8.9c1,0.7,2,1.2,2.9,2
						c2.1,1,4.1,1.8,6.1,2.9c2.7,1.6,5.5,2.9,8.3,4.4c1,0.5,2,1.1,2.8,1.7c0.9,0.5,1.5,1.5,2,2.4c0.2,0.1,0.6,0.1,0.9,0.2
						c0.6,0.4,1.1,0.7,1.7,1.1c0-0.1,0-0.1,0-0.2c0,0.1,0,0.1,0,0.2c0.1,0.1,0.2,0.2,0.5,0.4c1.8,1.8,3.5,4,4.9,6.5
						c1.7,3.2,3.3,6.5,4.9,9.8c1.2,2.4,2.4,5,3.9,7.2c0.4,0.2,0.9,0.4,1.2,0.6c2,1.1,4,2.3,6,3.4c2,1.1,4.1,1.6,6.3,2.1
						c2.4,0.5,4.9,1,7.3,1.3c2.6,0.4,5.1,1,7.7,2.1c0.1,0,0.1,0.1,0.2,0.1c2.6,1.2,5,2.9,7.1,5.2c1.7,1.8,3.1,3.9,4.5,6
						c1.5,2,2.8,3.9,4.3,6c0.9,1.1,1.6,2.2,2.4,3.4c0.9,1.1,1.7,2.2,2.6,3.3c0.7,0.9,1.3,1.7,2.2,2.4c2.7,2.3,5.6,3.7,8.8,4.5
						c2.9,0.9,5.9,1.2,8.8,1.6c0.5,0,0.9,0.1,1.3,0.1c2.8,0.5,5.6,1.1,8.3,2.3c2.7,1.2,5,3.1,7,5.5c1.5,1.8,2.8,3.7,4.1,5.5
						c0.7,1.1,1.5,2.1,2.2,3.2c1.3,2,2.7,4,4,6c1.7,2.3,3.8,4.1,6,5.9c0.5,0.4,1,0.7,1.5,1.2C545.3,166.4,545.3,166.1,545.2,166z"/>
					<path class="st3" d="M564.6,154.1L564.6,154.1L564.6,154.1z"/>
					
						<linearGradient id="SVGID_17_" gradientUnits="userSpaceOnUse" x1="394.6899" y1="104.0425" x2="564.655" y2="104.0425" gradientTransform="matrix(1 0 0 -1 0 172)">
						<stop  offset="0" style="stop-color:#3C17A2"/>
						<stop  offset="1" style="stop-color:#B02E7C"/>
					</linearGradient>
					<path class="st28" d="M559.6,146.2c-1.3-2.4-2.6-5-3.4-7.8c-0.9-2.4-1.7-4.8-2.4-7.2c-0.6-1.8-1.2-3.7-2.1-5.5
						c-0.9-1.6-1.5-3.3-2.3-5c-0.1-0.1-0.2-0.4-0.4-0.5c-1.3-2.3-2.8-4.4-4.6-6.1c-1.2-1.1-2.6-2.2-3.9-3.1
						c-1.3-0.9-2.7-1.5-4.1-2.2c-0.4-0.2-0.7-0.4-1.1-0.6c-1-0.5-2.1-1.1-3.1-1.6c-1.6-0.7-3.2-1.5-4.8-2.3c-2.3-1.2-4.4-2.9-6.3-5
						c-1-1.2-2-2.3-2.8-3.5c-1.3-1.8-2.3-3.9-3.2-6.1c-0.1-0.2-0.2-0.6-0.4-0.9c-0.1-0.2-0.1-0.5-0.2-0.7c-0.4-0.1-0.4-0.4-0.2-0.7
						c-1.6-4.4-5.1-14-5.4-14.4c-1.2-1.6-2.6-3.3-3.8-4.9c-0.6-0.7-1.1-1.5-1.7-2.2c-0.5-0.6-1.1-1.1-1.6-1.7
						c-0.9-1-1.8-1.6-2.9-2.2c-3.4-2.3-7-4-10.6-5.7c-0.7-0.4-1.5-0.9-2.2-1.2c-2-0.9-3.7-2.2-5.2-3.7c-1.6-1.5-2.9-3.3-4.3-5.2
						c-2.2-3.5-3.8-7.4-5.1-11.5c-0.9-2.4-1.7-5-2.6-7.4c-0.7-1.3-1.6-2.8-2.3-4.1c-0.1-0.1-0.2-0.4-0.2-0.5c-0.2-1-0.5-2-1.2-2.7
						l0.1-0.1c0.1,0.1,0.2,0.2,0.4,0.4c0.5,0.6,1.1,1.2,1.6,1.8c0.1,0.1,0.1,0.1,0.2,0.2c0.5,1.1,1,2.3,1.5,3.4
						c0.1,0.4,0.2,0.9,0.4,1.2c0.7,1.5,1.5,2.9,2.2,4.4c1.3,2.6,2.6,5.1,3.9,7.7c0.4,0.6,0.7,1.2,1.1,1.8c2.4,3.7,5.4,6.6,8.9,8.5
						c0.2,0.1,0.5,0.2,0.7,0.5c0.5,0.2,1.1,0.4,1.6,0.6c0.2,0.1,0.4,0.1,0.6,0.2c1,0.4,2,0.7,2.9,1.1c2.9,1.1,6,2.3,8.9,3.4
						c0.1,0,0.2,0.1,0.4,0.1c0.9,0.5,1.7,0.9,2.6,1.3c0.1,0.1,0.4,0.2,0.5,0.4c0.1,0,0.1,0.1,0.2,0.1c3.3,1.8,6,4.6,8.2,8.1
						c0.6,0.9,1.1,1.8,1.7,2.7c0.4,0.7,0.7,1.5,1,2.2c1.3,2.8,2.6,5.6,3.9,8.4c0.9,1.7,1.7,3.4,2.6,5c0.4,0.6,0.7,1.2,1.2,1.7
						c0.7,0.9,1.3,1.8,2.2,2.6c1.6,1.5,3.3,2.8,5,4.1c0.9,0.7,1.8,1.3,2.7,2.1c0.2,0.2,0.5,0.2,0.7-0.1c0.2-0.5,0-0.6-0.2-0.9
						c-1.2-1.3-2.4-2.8-3.4-4.4c-2.1-3.3-3.7-7-4.8-11c-0.7-2.6-1.5-5.1-2.4-7.6c-0.5-1.2-0.9-2.3-1.3-3.5c-0.2-0.5-0.5-1-0.7-1.5
						c-1.3-3.1-3.1-5.6-5.2-7.9c-0.4-0.4-0.7-0.7-1.2-1.1c-0.1-0.1-0.1-0.2-0.2-0.4c-1.1-0.9-2.2-1.7-3.4-2.6
						c-2.2-1.3-4.4-2.7-6.6-4c-1-0.5-2-1-3.1-1.6c-1.1-0.5-2.2-1.2-3.2-2c-1.7-1.3-3.4-2.6-4.9-3.9c-1.2-1.1-2.2-2.6-3.1-4.3
						c-0.2-0.5-0.6-1.1-0.9-1.6c-0.1-0.4-0.4-0.9-0.5-1.2c-2.1-4.8-3.8-9.6-5.6-14.5c-1.1-3.1-2.3-6.1-3.9-8.8
						c-0.6-1-1.2-1.8-1.8-2.7c-0.6-0.6-1.1-1.3-1.7-2c-2.3-2.4-4.9-4.1-7.7-5.5c-1.3-0.7-2.7-1.3-4-2.2c-1.8-1-3.7-2.1-5.5-3.2
						c-1.2-0.7-2.4-1.7-3.5-2.6c-2.7-2.3-4.6-5.5-6.5-8.7c-0.2-0.4-0.1-1-0.2-1.5c-0.4-0.9-0.6-1.8-1-2.7c0,0,0,0-0.1,0
						c-1.1,0-2.1,0-3.2,0c-3.9,0-7.8,0-11.7,0c-3.5,0-7,0-10.5,0c-4,0-7.9,0-12,0c-2.3,0-4.6,0-7,0c-2.4,0-5,0-7.4,0
						c0,0.2,0,0.4,0,0.6c0,9.6,0,19.4,0,29c0,0.2,0,0.4,0,0.6c2.3,2.3,4.1,5.1,5.7,8.2c0.9,1.7,1.7,3.4,2.4,5.2
						c0.1,0.1,0.1,0.4,0.1,0.6c0.1,0.2,0.1,0.6,0.2,0.9c0.7,1.5,1.5,2.8,2.2,4.3c1.1,2.1,2.2,4.1,3.5,6c0.1,0.1,0.1,0.2,0.2,0.4
						c1.6,2.1,3.4,3.8,5.5,5.2c2,1.3,4,2.4,6.2,3.2c1.2,0.5,2.6,1,3.8,1.6c1.1,0.5,2.1,0.9,3.2,1.3c1,0.4,2,0.7,2.9,1.2
						c0.2,0.1,0.4,0.1,0.6,0.2c1.3,0.6,2.6,1.2,3.9,1.7c1.1,0.4,2,1.1,2.8,2.1c1.2,1.5,2.4,2.9,3.7,4.4c0.2,0,0.4,0.1,0.4,0.5
						c0.1,0.1,0.2,0.4,0.4,0.5c0.9,1.3,1.8,2.6,2.7,3.9c1.5,2.6,2.7,5.1,4,7.8c1.1,2.2,2.2,4.4,3.3,6.6c0.4,0.6,0.7,1.2,1.2,1.8
						c0.1,0.2,0.4,0.4,0.5,0.6c2,2.3,4,4.3,6.2,6.1c1.7,1.5,3.7,2.2,5.7,2.9c0.1,0.1,0.4,0.1,0.5,0.2c1.2,0.5,2.4,1,3.5,1.5
						c0.2,0,0.4,0.1,0.6,0.2c1.8,0.6,3.8,1.3,5.6,2c0.1,0,0.2,0.1,0.4,0.1c2.9,1.1,5.6,2.8,7.9,5.1c0.7,0.7,1.5,1.5,2.2,2.2
						c0.1,0.1,0.2,0.4,0.4,0.5c0.6,0.9,1.2,1.6,1.7,2.4c1.5,2.3,2.7,5,3.9,7.6c0.5,1.2,1,2.3,1.6,3.4c0.2,0.4,1,2.1,1.2,2.4
						c0.6,1.3,1.3,2.8,2.1,4c0.4,0.6,0.7,1.1,1.1,1.7c0.9,1.1,1.6,2.1,2.4,3.2c2,2.3,4.3,4.1,6.8,5.5c1.3,0.6,2.7,1.1,4.1,1.7v0.1
						c0.1,0,0.2,0,0.4,0.1c3.4,1.2,6.8,2.4,10.3,3.8c3.2,1.2,5.9,3.2,8.3,5.7c1,1,1.8,2,2.8,2.9c-0.1-0.5-0.1-1-0.2-1.5
						c-0.5-1.2-0.9-2.6-1.5-3.8c-1-2.2-2.2-4.3-3.7-6.1c-1.2-1.6-2.6-2.9-4-4.3c-0.9-0.6-1.7-1.3-2.7-1.8c-2-1.1-4-2.2-6-3.2
						c-1.2-0.6-2.4-1.3-3.8-2c-0.1-0.1-0.4-0.2-0.5-0.4c-2.8-1.6-5.7-3.1-8.1-5.9c-1.2-1.5-2.4-3.1-3.5-4.6c-0.4-0.5-0.7-0.9-1-1.3
						c-0.2-0.6-0.6-1.2-0.9-1.8c-0.5-1.2-0.9-2.4-1.3-3.7c-1.1-3.1-2.2-6-3.3-9c-0.9-2.3-1.7-4.6-2.8-6.8c-0.5-1-1.1-2-1.7-2.9
						c-0.1-0.2-0.4-0.4-0.5-0.6c-0.7-0.9-1.5-1.8-2.1-2.7c-1.1-1.1-2.1-2.2-3.2-3.2c-2.1-1.8-4.5-3.2-7-4.4
						c-0.7-0.4-1.5-0.9-2.2-1.2c-2.7-1.6-5.4-3.3-8.1-4.9c-0.9-0.5-1.7-1.1-2.6-1.6c-0.2-0.1-0.6-0.4-0.7-0.6c-0.7-1-1.6-2-2.2-2.9
						c-2.1-3.1-3.8-6.3-5.1-10.1c-0.5-1.2-0.9-2.6-1.3-3.8c-1-2.8-2-5.6-3.1-8.3c-1-2.7-2.3-5-3.9-7.2c0,0,0,0,0-0.1
						c0-0.2-0.1-0.4-0.1-0.6c0.1,0,0.2,0,0.4,0c1.5,0.7,2.7,1.6,3.9,2.8c1,1,1.8,2,2.7,3.1c0.4,0.5,0.7,1.2,1.1,1.7
						c0.6,1.2,1.3,2.6,2,3.8c1.6,3.3,3.1,6.6,4.8,9.9c1.2,2.3,2.3,4.8,3.9,6.8c0.4,0.6,0.9,1.1,1.2,1.7c1.5,1.7,2.9,3.2,4.8,4.3
						c1.5,0.9,2.9,1.6,4.4,2.3c0.1,0.1,0.2,0.1,0.4,0.2c3.2,1.2,6.3,2.6,9.5,3.8c0.6,0.2,1.3,0.5,2,0.7c0.4,0.2,0.9,0.4,1.2,0.6
						c0.1,0,0.2,0,0.4,0.1c1.2,0.7,2.4,1.3,3.5,2.1c0.6,0.4,1.2,1,1.8,1.6c1.2,1.2,2.4,2.4,3.7,3.7c0.1,0.1,0.2,0.2,0.4,0.5
						c0.4,0.5,0.7,1,1,1.5c0.5,0.7,1,1.3,1.3,2.1c1.8,3.7,3.5,7.3,5.4,11c1.2,2.3,2.1,5,3.8,7c0.9,1,1.6,2,2.3,2.9
						c0.2,0.4,0.6,0.6,0.9,0.9c0.4-0.2,0.2,0.1,0.2,0.4c0,0,0,0,0.1,0c0.1,0.1,0.2,0.2,0.2,0.4l0.1,0.1c0.1,0,0.1,0.1,0.2,0.1l0,0
						c0.5,0.4,0.9,0.9,1.3,1.1c2.3,1.8,4.9,2.9,7.4,3.9c0.4,0.1,0.6,0.2,0.9,0.5c0.7,0.2,1.3,0.5,2.1,0.9c2.8,1.2,5.7,2.4,8.5,3.7
						c0.2,0.1,0.5,0.1,0.7,0.2c0.1,0.1,0.2,0.1,0.4,0.2c1,0.4,2,0.9,3.1,1.2c0.2,0.1,0.5,0.2,0.6,0.5c0.7,0.7,1.5,1.5,2.2,2.3
						c1,1.1,2,2.2,2.8,3.4c1.1,1.7,2,3.5,2.9,5.4c0.5,1,1,2.1,1.5,3.1c0,0.1,0.1,0.1,0.1,0.2c1,2,2,3.9,2.9,5.9
						c1.2,2.7,2.6,5.2,4.3,7.6c2,2.6,4.1,4.5,6.7,6c0.4,0.2,0.7,0.2,1.1,0.5c-0.4-0.6-0.6-1.3-1-1.8
						C562.2,150.4,560.8,148.4,559.6,146.2z"/>
					
						<linearGradient id="SVGID_18_" gradientUnits="userSpaceOnUse" x1="447.2044" y1="94.7425" x2="567.9413" y2="94.7425" gradientTransform="matrix(1 0 0 -1 0 172)">
						<stop  offset="0" style="stop-color:#CD535D"/>
						<stop  offset="1" style="stop-color:#B42535"/>
					</linearGradient>
					<path class="st29" d="M567.9,63.4c0-0.2,0-0.4,0-0.6c-3.8-1.3-7.6-2.8-11.4-4.1c-2.4-0.9-4.8-2.3-6.8-4.1
						c-0.1-0.1-0.2-0.2-0.4-0.2c-0.9-1-1.8-1.8-2.7-2.8c-2.6-3.1-4.6-6.5-6.2-10.4c-1.3-3.7-3.3-6.8-5.1-10.1
						c-0.9-1.3-1.6-2.8-2.4-4.1c-0.5-0.7-1.1-1.3-1.7-2c-0.1-0.1-0.2-0.2-0.4-0.2c-2-1.8-4-3.3-6.3-4.3c-0.5-0.2-1.1-0.6-1.6-0.7
						c-3.2-1.1-6.3-2.3-9.5-3.4c-3.3-1.1-6.3-2.7-9.2-5.1c-1.5-1.3-2.8-2.8-4-4.4c-2-2.7-3.4-5.9-4.9-8.9s-2.9-6.1-4.4-9.2
						c-0.5-1-1.1-1.8-1.7-2.7c-0.4-0.6-0.9-1.2-1.2-1.8c-0.9-1-1.7-2-2.6-2.9h-0.1c-1.6,0-3.1,0-4.6,0c-4.9,0-9.9,0-14.8,0
						c1.2,0.7,2.4,1.7,3.8,2.3c2.9,1.6,5.9,3.2,8.9,4.6c4.5,2.3,7.8,6.2,10.3,11.4c0,0.1,0.1,0.2,0.1,0.4c0.2,0.6,0.5,1.2,0.7,1.8
						c1.1,3.1,2.2,6.1,3.4,9c1.1,3.1,2.2,6.1,3.8,8.8c0.9,1.6,2,2.9,2.9,4.4c1.3,1.7,2.9,3.2,4.5,4.4c3.1,2.3,6.5,3.5,9.6,5.4
						c1.6,0.9,3.3,1.6,4.9,2.4c2,1,3.7,2.3,5.4,3.9c0.1,0.1,0.2,0.2,0.4,0.4c2.9,2.9,5.2,6.3,7,10.5c1.1,2.6,2.2,5.2,3.2,7.8
						c0.5,1.1,0.9,2.2,1.3,3.3c1.1,2.8,2.3,5.7,3.4,8.5c0.9,1.1,1.7,2.2,2.4,3.3c0,0,0,0.1,0.1,0.1h-0.1c-1-0.9-2-1.8-2.9-2.7
						c-0.1-0.1-0.1-0.2-0.2-0.2c-1.2-2-2.6-3.8-3.8-5.7c-0.1-0.2-0.2-0.5-0.4-0.6c-2.2-3.2-4-6.7-5.6-10.4c-2-4.8-4.5-9-8.2-12.1
						c-1.2-1.1-2.7-2.1-4.1-2.8c-2.7-1.2-5.2-2.2-7.9-3.3c-1.8-0.7-3.7-1.3-5.5-2c-0.1,0-0.1-0.1-0.2-0.1c-3.7-1.3-7.1-3.5-9.9-6.7
						c-1.5-1.6-2.6-3.3-3.8-5.1c-1.2-2.4-2.4-4.9-3.7-7.4c-1.1-2.2-2-4.4-3.1-6.5c-3.2-6.3-7.6-11-13.4-13.5c-2.2-1-4.4-1.6-6.6-2.3
						c-3.5-1.2-7.1-2.6-10.4-4.6c-1.7-1.1-3.3-2.4-5-3.8c0.1,0.5,0,1.1,0.2,1.5c1.8,3.2,3.8,6.3,6.5,8.7c1.2,0.9,2.3,1.8,3.5,2.6
						c1.8,1.1,3.7,2.2,5.5,3.2c1.3,0.7,2.7,1.5,4,2.2c2.8,1.5,5.4,3.2,7.7,5.5c0.6,0.6,1.1,1.3,1.7,2c0.6,0.9,1.2,1.8,1.8,2.7
						c1.6,2.7,2.8,5.7,3.9,8.8c1.7,4.9,3.5,9.9,5.6,14.5c0.1,0.4,0.4,0.9,0.5,1.2c0.2,0.5,0.6,1.1,0.9,1.6c0.7,1.7,1.7,3.2,3.1,4.3
						c1.6,1.5,3.3,2.7,4.9,3.9c1,0.9,2.1,1.5,3.2,2c1,0.5,2,1,3.1,1.6c2.2,1.3,4.4,2.6,6.6,4c1.2,0.7,2.3,1.7,3.4,2.6
						c0.1,0.1,0.1,0.2,0.2,0.4c0.4,0.4,0.9,0.7,1.2,1.1c2.1,2.2,3.9,4.9,5.2,7.9c0.2,0.5,0.5,1,0.7,1.5c0.5,1.2,0.9,2.4,1.3,3.5
						c1,2.4,1.8,5,2.4,7.6c1.1,3.9,2.7,7.7,4.8,11c1,1.6,2.1,3.2,3.4,4.4c0.2,0.2,0.5,0.4,0.2,0.9c-0.2,0.4-0.5,0.4-0.7,0.1
						c-0.9-0.7-1.8-1.3-2.7-2.1c-1.7-1.3-3.4-2.7-5-4.1c-0.9-0.7-1.5-1.7-2.2-2.6c-0.5-0.5-0.7-1.1-1.2-1.7c-0.9-1.7-1.8-3.3-2.6-5
						c-1.3-2.8-2.7-5.6-3.9-8.4c-0.4-0.7-0.7-1.5-1-2.2c-0.6-0.9-1.1-1.8-1.7-2.7c-2.2-3.4-4.9-6.2-8.2-8.1c-0.1,0-0.1-0.1-0.2-0.1
						c-0.1-0.1-0.4-0.2-0.5-0.4c-0.9-0.5-1.7-0.9-2.6-1.3c-0.1,0-0.2-0.1-0.4-0.1c-2.9-1.1-6-2.3-8.9-3.4c-1-0.4-2-0.7-2.9-1.1
						c-0.2-0.1-0.4-0.1-0.6-0.2c-0.5-0.2-1.1-0.4-1.6-0.6c-0.2-0.1-0.5-0.4-0.7-0.5c-3.5-2-6.5-4.8-8.9-8.5
						c-0.4-0.6-0.9-1.2-1.1-1.8c-1.3-2.6-2.6-5.1-3.9-7.7c-0.7-1.5-1.5-2.9-2.2-4.4c-0.1-0.4-0.2-0.9-0.4-1.2
						c-0.5-1.1-1-2.3-1.5-3.4c-0.1-0.1-0.2-0.1-0.2-0.2c-0.6-0.6-1.1-1.2-1.6-1.8c-0.1-0.1-0.2-0.2-0.4-0.4l-0.1,0.1
						c0.7,0.7,1,1.7,1.2,2.7c0.1,0.1,0.2,0.4,0.2,0.5c0.7,1.3,1.6,2.8,2.3,4.1c0.9,2.4,1.7,5,2.6,7.4c1.3,4,3.1,7.9,5.1,11.5
						c1.3,2,2.7,3.8,4.3,5.2c1.6,1.5,3.4,2.8,5.2,3.7c0.7,0.4,1.5,0.9,2.2,1.2c3.5,1.8,7.2,3.5,10.6,5.7c1.1,0.5,2.1,1.1,2.9,2.2
						c0.5,0.6,1,1.1,1.6,1.7c0.6,0.7,1.1,1.5,1.7,2.2c1.2,1.6,4.1,5.6,4.3,6c1.6,4.4,3.3,8.8,4.9,13.3c0.1,0.2,0.2,0.5,0.2,0.7
						c0.1,0.2,0.1,0.5,0.2,0.7c0.1,0.2,0.2,0.6,0.4,0.9c0.9,2.2,2,4.3,3.2,6.1c0.9,1.2,1.8,2.3,2.8,3.5c1.8,2.1,4,3.8,6.3,5
						c1.6,0.9,3.2,1.6,4.8,2.3c1,0.5,2.1,1.1,3.1,1.6c0.4,0.2,0.7,0.4,1.1,0.6c1.3,0.7,2.8,1.3,4.1,2.2c1.3,0.9,2.7,2,3.9,3.1
						c1.8,1.7,3.4,3.8,4.6,6.1c0.1,0.1,0.2,0.4,0.4,0.5c0.7,1.7,1.5,3.4,2.3,5c0.9,1.7,1.5,3.5,2.1,5.5c0.9,2.4,1.6,4.9,2.4,7.2
						c1,2.7,2.2,5.2,3.4,7.8c1.2,2.2,2.6,4.3,4,6.1c0.4,0.5,0.7,1.2,1,1.8c-0.4-0.1-0.7-0.2-1.1-0.5c-2.6-1.3-4.8-3.4-6.7-6
						c-1.7-2.3-3.1-4.9-4.3-7.6c-1-2-2-3.9-2.9-5.9c0-0.1-0.1-0.1-0.1-0.2c-0.5-1-1-2.1-1.5-3.1c-1-1.8-1.8-3.7-2.9-5.4
						c-0.9-1.2-1.8-2.3-2.8-3.4c-0.7-0.9-1.5-1.6-2.2-2.3c-0.2-0.2-0.4-0.4-0.6-0.5c-1-0.5-2-0.9-3.1-1.2c-0.1,0-0.2-0.1-0.4-0.2
						c-0.2-0.1-0.5-0.1-0.7-0.2c-2.8-1.2-5.7-2.4-8.5-3.7c-0.7-0.2-1.3-0.5-2.1-0.9c-0.2-0.1-0.6-0.4-0.9-0.5
						c-2.6-1-5.1-2.2-7.4-3.9c-0.5-0.4-0.9-0.7-1.3-1.1l0,0c-0.1,0-0.1-0.1-0.2-0.1l-0.1-0.1c-0.1-0.1-0.2-0.2-0.2-0.4
						c0,0,0,0-0.1,0c-0.1-0.1-0.2-0.2-0.2-0.4c-0.2-0.2-0.6-0.5-0.9-0.9c-0.7-1-1.5-2.1-2.3-2.9c-1.7-2-2.6-4.6-3.8-7
						c-1.8-3.7-3.5-7.3-5.4-11c-0.4-0.7-0.9-1.3-1.3-2.1c-0.4-0.5-0.7-1-1-1.5c-0.1-0.1-0.2-0.4-0.4-0.5c-1.2-1.2-2.4-2.4-3.7-3.7
						c-0.6-0.6-1.2-1.1-1.8-1.6c-1.2-0.7-2.3-1.3-3.5-2.1c-0.1,0-0.2-0.1-0.4-0.1c-0.4-0.2-0.9-0.4-1.2-0.6c-0.6-0.2-1.3-0.5-2-0.7
						c-3.2-1.2-6.3-2.4-9.5-3.8c-0.1,0-0.2-0.1-0.4-0.2c-1.5-0.7-3.1-1.5-4.4-2.3c-1.8-1.1-3.3-2.6-4.8-4.3
						c-0.5-0.5-0.9-1.1-1.2-1.7c-1.6-2.1-2.7-4.5-3.9-6.8c-1.7-3.2-3.2-6.6-4.8-9.9c-0.6-1.3-1.3-2.6-2-3.8
						c-0.4-0.6-0.7-1.2-1.1-1.7c-0.9-1.1-1.7-2.1-2.7-3.1c-1.2-1.2-2.4-2.1-3.9-2.8c-0.1,0-0.2,0-0.4,0c0,0.2,0.1,0.4,0.1,0.6
						c0,0,0,0,0,0.1c1.6,2.2,2.8,4.6,3.9,7.2c1.1,2.8,2.1,5.6,3.1,8.3c0.5,1.2,0.9,2.6,1.3,3.8c1.2,3.7,2.9,7.1,5.1,10.1
						c0.7,1,1.5,2,2.2,2.9c0.2,0.2,0.5,0.5,0.7,0.6c0.9,0.5,1.7,1.1,2.6,1.6c2.7,1.6,5.4,3.3,8.1,4.9c0.7,0.5,1.5,0.9,2.2,1.2
						c2.4,1.3,4.8,2.6,7,4.4c1.1,1,2.1,2.1,3.2,3.2c0.7,0.9,1.5,1.8,2.1,2.7c0.1,0.2,0.4,0.4,0.5,0.6c0.6,1,1.1,2,1.7,2.9
						c1.1,2.2,2,4.5,2.8,6.8c1.1,3.1,2.2,6,3.3,9c0.5,1.2,0.9,2.4,1.3,3.7c0.2,0.6,0.6,1.2,0.9,1.8c0.4,0.5,0.7,0.9,1,1.3
						c1.2,1.6,2.3,3.2,3.5,4.6c2.3,2.8,5.1,4.3,8.1,5.9c0.2,0.1,0.4,0.2,0.5,0.4c1.2,0.6,2.4,1.3,3.8,2c2,1.1,4,2.1,6,3.2
						c1,0.5,1.8,1.2,2.7,1.8c1.5,1.3,2.8,2.7,4,4.3c1.5,1.8,2.7,3.9,3.7,6.1c0.5,1.2,1,2.4,1.5,3.8c0.1,0.5,0.1,1,0.2,1.5
						c0.4,0.9,0.9,1.6,1.2,2.4c0.4,0.7,0.7,1.5,1.1,2.2c2,3.8,3.8,7.7,5.7,11.5c1,2.1,2.1,4,3.2,6.1c0.1,0.2,0.1,0.4,0.2,0.6l0,0
						l0.1,0.1c0.2,0.4,0.6,0.7,0.9,1c0.1,0.1,0.4,0.1,0.6,0.2c0.1,0,0.2,0,0.2,0.1c0.1,0.1,0.2,0.1,0.2,0.2c0.6,0.2,1.2,0.6,1.8,0.9
						c2.2,1,4.4,1.5,6.6,1.7c1.3,0.2,2.7,0.5,4,0.6c1.7,0.2,3.4,0.6,5.2,1c1,0.1,1.8,0.5,2.7,0.7c0-0.2,0-0.4,0-0.6
						C567.9,136.8,567.9,100.1,567.9,63.4z"/>
					<path class="st30" d="M542.5,72.8L542.5,72.8L542.5,72.8L542.5,72.8z"/>
					<path class="st31" d="M514.5,88.3c-0.4-0.1-0.4-0.4-0.2-0.7C514.2,87.7,514.3,88,514.5,88.3z"/>
					<path class="st31" d="M514,107c0.4-0.2,0.2,0.1,0.2,0.4C514.1,107.2,514.1,107.1,514,107z"/>
					<path class="st31" d="M514.3,107.3c0.1,0.1,0.2,0.2,0.2,0.4C514.6,107.4,514.5,107.3,514.3,107.3z"/>
					<path class="st31" d="M514.8,107.7c0.1,0,0.1,0.1,0.2,0.1C514.9,107.8,514.8,107.8,514.8,107.7z"/>
				</g>
			</g>
		</g>
		<rect x="701.1" y="0.2" class="st32" width="140.5" height="170.8"/>
		<rect x="981.6" y="0.2" width="140.5" height="170.8"/>
		<rect x="279.4" y="0.2" width="114.6" height="170.8"/>
		<rect y="0.2" class="st33" width="140.5" height="170.8"/>
		<rect x="139.8" y="0.2" class="st34" width="140.5" height="170.8"/>
		<rect x="576" y="0.2" class="st35" width="130.8" height="170.8"/>
		<rect x="842.8" y="0.2" class="st36" width="140.5" height="170.8"/>
		
			<linearGradient id="SVGID_19_" gradientUnits="userSpaceOnUse" x1="1478.4258" y1="962.862" x2="1618.3258" y2="962.862" gradientTransform="matrix(-1 0 0 1 2399.4258 -877.312)">
			<stop  offset="0" style="stop-color:#D83556"/>
			<stop  offset="1" style="stop-color:#FFFFFF"/>
		</linearGradient>
		<polygon class="st37" points="781.1,0.5 921,0.5 921,170.6 781.1,170.6 		"/>
		
			<linearGradient id="SVGID_20_" gradientUnits="userSpaceOnUse" x1="637.8" y1="86.4" x2="777.8" y2="86.4" gradientTransform="matrix(1 0 0 -1 0 172)">
			<stop  offset="0" style="stop-color:#431CF9"/>
			<stop  offset="1" style="stop-color:#FFFFFF"/>
		</linearGradient>
		<rect x="637.8" y="0.5" class="st38" width="140" height="170.2"/>
		
			<linearGradient id="SVGID_21_" gradientUnits="userSpaceOnUse" x1="229.5" y1="86.4" x2="333.8" y2="86.4" gradientTransform="matrix(1 0 0 -1 0 172)">
			<stop  offset="0" style="stop-color:#D44412"/>
			<stop  offset="0.1162" style="stop-color:#B2390F"/>
			<stop  offset="0.3506" style="stop-color:#73250A"/>
			<stop  offset="0.5646" style="stop-color:#421506"/>
			<stop  offset="0.7509" style="stop-color:#1E0A03"/>
			<stop  offset="0.9024" style="stop-color:#080301"/>
			<stop  offset="1" style="stop-color:#000000"/>
		</linearGradient>
		<rect x="229.5" y="0.5" class="st39" width="104.3" height="170.2"/>
		
			<linearGradient id="SVGID_22_" gradientUnits="userSpaceOnUse" x1="922.9" y1="86.4" x2="1062.9" y2="86.4" gradientTransform="matrix(1 0 0 -1 0 172)">
			<stop  offset="0" style="stop-color:#D83556"/>
			<stop  offset="1" style="stop-color:#000000"/>
		</linearGradient>
		<rect x="922.9" y="0.5" class="st40" width="140" height="170.2"/>
		
			<linearGradient id="SVGID_23_" gradientUnits="userSpaceOnUse" x1="449.7" y1="527.8826" x2="589.7" y2="527.8826" gradientTransform="matrix(-1 0 0 1 643.8 -442.3326)">
			<stop  offset="0" style="stop-color:#D44412"/>
			<stop  offset="0.2667" style="stop-color:#C4351B"/>
			<stop  offset="0.7119" style="stop-color:#AE2028"/>
			<stop  offset="1" style="stop-color:#A6192C"/>
		</linearGradient>
		<polygon class="st41" points="54.1,0.5 194.1,0.5 194.1,170.6 54.1,170.6 		"/>
		
			<linearGradient id="SVGID_24_" gradientUnits="userSpaceOnUse" x1="509.9825" y1="86.4" x2="579.9976" y2="86.4" gradientTransform="matrix(1 0 0 -1 0 172)">
			<stop  offset="0" style="stop-color:#431CF9;stop-opacity:0"/>
			<stop  offset="0.3936" style="stop-color:#4124F1;stop-opacity:0.3936"/>
			<stop  offset="1" style="stop-color:#4027EE"/>
		</linearGradient>
		<rect x="510" y="0.5" class="st42" width="70" height="170.2"/>
		
			<linearGradient id="SVGID_25_" gradientUnits="userSpaceOnUse" x1="856.5798" y1="527.8826" x2="961.5375" y2="527.8826" gradientTransform="matrix(-1 0 0 1 1313.7439 -442.3326)">
			<stop  offset="0" style="stop-color:#000000;stop-opacity:0"/>
			<stop  offset="0.1413" style="stop-color:#000000;stop-opacity:0.1413"/>
			<stop  offset="1" style="stop-color:#000000"/>
		</linearGradient>
		<polygon class="st43" points="352.2,0.5 457.2,0.5 457.2,170.6 352.2,170.6 		"/>
		<path class="st32" d="M479.3,102.8c0,3.6-0.1,10.2,0,14c0.1,2.7-0.9,4.5-4,4.4c-5.6,0-11.2,0-17.2,0c0-23.1,0-45.8,0-68.1h26.6
			c20.2,0,30.6,10.6,31.2,23.5c0.5,12.3-7.3,26.2-29.7,26.2L479.3,102.8z"/>
		<g>
			<path class="st32" d="M264.8,96.4c-0.2,0.8-0.4,1.5-0.6,2.3c-1.7,5-6.1,8.3-11.6,8.3c-10.8,0-21.6,0-32.4,0
				c-1.3,0-1.8-0.5-1.8-1.8c0-12.6,0-25.2,0-37.8c0-1,0.4-1.4,1.3-1.8c8.9-3.5,19.4-0.3,24.8,7.7c2,2.9,3.3,6.1,3.7,9.7
				c0,0.2,0.1,0.4,0.2,0.7c2.1-0.8,4.2-1.1,6.4-0.7c5,0.8,9.2,4.8,10,9.9c0,0.2,0.1,0.4,0.2,0.6C264.8,94.3,264.8,95.4,264.8,96.4z"
				/>
			<path class="st32" d="M217.5,82.5c0.1,3.9,0.3,7.8,0.2,11.7c0,3.7-0.3,7.5-0.5,11.2c-0.1,1-0.6,1.5-1.4,1.5
				c-0.7,0-1.2-0.6-1.3-1.6c-0.7-7.8-0.4-15.6-0.3-23.5c0.1-4.2,0.2-8.5,0.3-12.7c0-0.3-0.1-0.7,0.1-0.9c0.3-0.4,0.8-1,1.2-1
				s1,0.5,1.3,0.9c0.2,0.3,0.2,0.8,0.2,1.2c0,4.4,0,8.9,0,13.3C217.3,82.5,217.4,82.5,217.5,82.5z"/>
			<path class="st32" d="M213.6,88.1c-0.2,5.7-0.4,11.5-0.6,17.2c0,1-0.5,1.6-1.3,1.5c-0.9-0.1-1.1-0.7-1.2-1.5
				c-0.5-6.9-0.4-13.7-0.3-20.6c0.1-4.5,0.2-9,0.3-13.5c0-0.3-0.1-0.7,0.1-0.9c0.3-0.4,0.7-0.9,1-0.9c0.4,0,0.9,0.4,1.2,0.7
				c0.2,0.2,0.2,0.7,0.2,1.1c0.1,5.6,0.2,11.3,0.3,16.9C213.5,88.1,213.5,88.1,213.6,88.1z"/>
			<path class="st32" d="M206.1,90c0.1-4.9,0.2-9.9,0.4-14.8c0-0.3-0.1-0.7,0.1-0.9c0.3-0.3,0.6-0.8,1-0.8c0.3,0,0.8,0.3,1,0.6
				c0.2,0.2,0.2,0.7,0.2,1c0.2,6.7,0.5,13.3,0.5,20c0,3.5-0.3,7-0.5,10.5c0,0.7-0.4,1.2-1.2,1.2c-0.9,0-1.1-0.6-1.2-1.3
				c-0.2-5.2-0.4-10.3-0.6-15.5C206,90,206.1,90,206.1,90z"/>
			<path class="st32" d="M205,87c0.4,5.3,0.1,11.9-0.4,18.4c-0.1,0.7-0.2,1.4-1.1,1.4c-0.9,0-1.1-0.6-1.1-1.4
				c-0.2-4.4-0.5-8.7-0.4-13.1c0-6,0.3-12,0.4-17.9c0-0.3,0-0.7,0.1-0.9c0.2-0.3,0.5-0.7,0.9-0.7c0.3,0,0.8,0.2,1,0.5
				c0.2,0.2,0.2,0.7,0.2,1C204.8,78.1,204.9,82,205,87z"/>
			<path class="st32" d="M198.2,85.8c0.1-4.1,0.3-8.2,0.4-12.2c0-0.7,0.1-1.3,1-1.3c0.8,0,1,0.6,1,1.3c0.2,7.2,0.6,14.4,0.7,21.6
				c0,3.5-0.4,7.1-0.7,10.6c0,0.6-0.4,1-1,1c-0.7,0-0.9-0.5-0.9-1.1c-0.4-5.5-0.8-11-0.5-16.5C198.2,88.1,198.1,87,198.2,85.8
				C198.1,85.8,198.2,85.8,198.2,85.8z"/>
			<path class="st32" d="M194.2,87.3c0.2-5.2,0.3-9,0.4-12.9c0-0.7,0.1-1.4,0.9-1.4c0.9,0,0.9,0.7,0.9,1.4
				c0.2,6.1,0.5,12.2,0.6,18.2c0,4.3-0.4,8.6-0.6,12.9c0,0.6-0.2,1.3-1,1.2c-0.7,0-0.8-0.6-0.9-1.3
				C194.1,99.1,193.8,92.5,194.2,87.3z"/>
			<path class="st32" d="M192.9,88c0.5,4.9,0.1,11-0.4,17.1c0,0.3,0,0.7-0.1,0.9c-0.2,0.3-0.5,0.7-0.8,0.7s-0.7-0.4-0.8-0.7
				c-0.2-1.3-0.2-2.7-0.4-4.1c-0.7-6.8-0.1-13.6,0.1-20.4c0-1.9,0.1-3.7,0.2-5.6c0-0.6,0.1-1.1,0.8-1.1s0.8,0.6,0.8,1.2
				C192.5,79.6,192.7,83.1,192.9,88z"/>
			<path class="st32" d="M188.8,88.6c0.8,5.8,0,11.6-0.5,17.3c0,0.3-0.4,0.6-0.7,0.9c-0.3-0.3-0.8-0.6-0.8-0.9c-0.3-5-1-10-0.6-15.1
				c0.3-3.5,0.4-7,0.5-10.5c0-0.3-0.1-0.6,0-0.7c0.2-0.4,0.5-0.7,0.8-1c0.2,0.3,0.6,0.6,0.7,1c0.2,2.1,0.3,4.3,0.4,6.5
				C188.7,86.9,188.8,87.8,188.8,88.6z"/>
			<path class="st32" d="M182.2,95.6c0.3-3.3,0.5-6.5,0.8-9.8c0-0.3,0.4-0.5,0.6-0.8c0.2,0.3,0.6,0.5,0.7,0.9
				c0.2,1.9,0.3,3.9,0.6,5.8c0.7,4.8-0.2,9.5-0.6,14.3c0,0.3-0.4,0.6-0.7,0.9c-0.2-0.3-0.6-0.5-0.6-0.8
				C182.7,102.5,182.5,99.1,182.2,95.6z"/>
			<path class="st32" d="M181.4,95.6c-0.3,3.4-0.6,6.8-1,10.2c0,0.3-0.4,0.5-0.6,0.7c-0.2-0.2-0.5-0.5-0.6-0.7
				c-0.5-5.7-1.2-11.3-0.3-17c0.2-1.2,0.2-2.4,0.3-3.6c0-0.3,0.3-0.6,0.5-0.9c0.2,0.3,0.6,0.5,0.6,0.8
				C180.7,88.6,181,92.1,181.4,95.6z"/>
			<path class="st32" d="M177.5,95.6c-0.3,2.6-0.5,5.3-0.8,8c-0.1,0.6-0.1,1.3-0.2,1.9c-0.1,0.2-0.3,0.4-0.5,0.7
				c-0.2-0.2-0.4-0.5-0.5-0.7c-0.2-1.4-0.2-2.7-0.4-4.1c-0.8-5.3,0-10.6,0.4-15.9c0-0.3,0.3-0.5,0.5-0.8c0.2,0.3,0.5,0.5,0.5,0.8
				C176.8,88.8,177.1,92.2,177.5,95.6z"/>
			<path class="st32" d="M172.2,86.3c0.1,0.3,0.3,0.5,0.3,0.8c0.3,2.5,0.7,5,0.9,7.5c0.1,1.4-0.1,2.9-0.3,4.3
				c-0.2,1.6-0.4,3.3-0.6,4.9c0,0.3-0.3,0.5-0.4,0.7c-0.2-0.2-0.4-0.5-0.4-0.7c-0.5-4.5-1.3-9.1-0.3-13.7c0.2-0.9,0.2-1.8,0.3-2.7
				c0-0.4,0.2-0.7,0.3-1.1C172,86.3,172.1,86.3,172.2,86.3z"/>
			<path class="st32" d="M168.6,89.7c0.1,0.3,0.3,0.5,0.3,0.8c0.3,1.5,0.7,3.1,0.7,4.6c0,1.9-0.5,3.9-0.7,5.8c0,0.2-0.3,0.3-0.4,0.4
				c-0.1-0.2-0.3-0.3-0.3-0.5c-0.3-2.4-0.9-4.7-0.5-7.1c0.2-0.9,0.2-1.9,0.4-2.8c0.1-0.4,0.2-0.7,0.3-1.1
				C168.4,89.7,168.5,89.7,168.6,89.7z"/>
		</g>
		<path class="st32" d="M105.3,50c-9.1,0-17.2,4.8-21.9,11.9C78.6,54.8,70.5,50,61.4,50c-14.5,0-26.2,11.7-26.2,26.2
			c0,9.2,5.8,15.8,11.9,21.9l23.7,22.5c1.3,1.2,3.3,0.3,3.3-1.5v-17.5c0-5,4.1-9.1,9.1-9.1s9.1,4.1,9.1,9.1v17.5
			c0,1.7,2,2.6,3.3,1.5l23.7-22.5c6.1-6.1,11.9-12.7,11.9-21.9C131.5,61.7,119.8,50,105.3,50z M59.6,96.4c-0.3,0.4-0.9,0.6-1.4,0.6
			c-0.4,0-0.9-0.2-1.2-0.4c-7.9-6.9-11.8-14.2-11.8-21.5V75c0-6.3,3.8-13.5,9-16.7c0.9-0.5,2-0.3,2.5,0.6c0.5,0.9,0.3,2-0.6,2.5
			C52,64,48.8,69.9,48.8,75v0.1c0,6.2,3.6,12.6,10.6,18.8C60.2,94.5,60.2,95.7,59.6,96.4z M71.3,89.7c-0.3,0.6-0.9,0.9-1.6,0.9
			c-0.3,0-0.6-0.1-0.9-0.3c-5.3-3-8.9-8.8-8.9-14.5v-0.1c0-5.5,3-10.4,7.9-13c0.9-0.4,2-0.1,2.5,0.8c0.4,0.9,0.1,2-0.8,2.5
			c-3.7,1.9-5.9,5.6-5.9,9.7c0,4.4,2.8,9.1,7,11.4C71.4,87.6,71.7,88.7,71.3,89.7z M83.3,85c-4.4,0-7.9-3.5-7.9-7.9s3.5-7.9,7.9-7.9
			s7.9,3.5,7.9,7.9C91.2,81.5,87.7,85,83.3,85z M97.9,90.4c-0.3,0.2-0.6,0.3-0.9,0.3c-0.6,0-1.3-0.3-1.6-0.9c-0.5-0.9-0.2-2,0.7-2.5
			c4.2-2.4,7-6.9,7-11.4c0-4.1-2.3-7.9-5.9-9.7c-0.9-0.4-1.2-1.5-0.8-2.5c0.4-0.9,1.5-1.2,2.5-0.8c4.9,2.6,7.9,7.5,7.9,13V76
			C106.8,81.6,103.2,87.4,97.9,90.4z M121.5,75c0,7.3-3.9,14.6-11.8,21.5c-0.3,0.3-0.8,0.4-1.2,0.4c-0.5,0-1-0.2-1.4-0.6
			c-0.7-0.8-0.6-1.9,0.2-2.6c7-6.2,10.6-12.6,10.6-18.8v-0.1c0-5.1-3.2-11.1-7.3-13.6c-0.9-0.5-1.1-1.6-0.6-2.5s1.6-1.1,2.5-0.6
			C117.6,61.5,121.5,68.7,121.5,75L121.5,75z"/>
		<path class="st32" d="M940.4,76.6v29.7c0,2.2-0.3,4.3-1.3,6.3c-1.5,3.1-4,5-7.2,5.9c-1.8,0.5-3.7,0.8-5.6,0.9
			c-4.9,0.2-9.2-3.1-10.1-8c-0.7-4,1.2-8.5,5.4-10.5c1.7-0.8,3.5-1.3,5.3-1.7c2-0.4,3.9-0.8,5.9-1.2c1.4-0.3,2.4-1.2,2.7-2.7
			c0.1-0.3,0.1-0.7,0.1-1c0-9.4,0-18.9,0-28.3c0-0.3-0.1-0.7-0.1-1c-0.2-0.8-0.8-1.3-1.6-1.2s-1.7,0.2-2.5,0.3
			c-4,0.8-7.9,1.6-11.9,2.4l-19.3,3.9c-0.1,0-0.2,0.1-0.2,0.1c-1.4,0.4-2,1.1-2,2.5c0,0.2,0,0.4,0,0.7c0,13.5,0,27.1,0,40.6
			c0,2.2-0.2,4.4-1.1,6.4c-1.4,3.3-4,5.4-7.5,6.4c-1.8,0.5-3.7,0.8-5.6,0.9c-5,0.2-9.1-3.1-10-8c-0.7-4.2,1.2-8.8,6-10.8
			c1.9-0.8,3.8-1.2,5.8-1.6c1.5-0.3,3-0.6,4.5-0.9c2-0.4,3-1.7,3.1-3.7v-0.8c0-15.4,0-30.8,0-46.2c0-0.6,0.1-1.3,0.2-1.9
			c0.4-1.5,1.4-2.3,2.8-2.7c1.3-0.3,2.7-0.6,4-0.9c3.8-0.8,7.6-1.5,11.4-2.3l11.8-2.4c3.5-0.7,7-1.4,10.5-2.1
			c1.1-0.2,2.3-0.5,3.5-0.6c1.6-0.1,2.7,0.9,2.9,2.5c0,0.4,0.1,0.8,0.1,1.2C940.4,56.7,940.4,66.6,940.4,76.6z"/>
		<g>
			<path class="st44" d="M629,118.1c-19.5,0.1-38.4-7.5-52.9-21.3c-1.1-1-0.1-2.5,1.2-1.7c16.2,9.8,34.5,14.9,53.1,14.9
				c13.9-0.1,27.6-3,40.4-8.7c1.9-0.9,3.6,1.4,1.6,2.9C660.6,113.2,643.7,118.1,629,118.1z"/>
			<path class="st44" d="M677,98.5c-1.5-2-10.1-0.9-13.9-0.5c-1.2,0.1-1.4-0.9-0.3-1.6c6.8-4.9,18-3.5,19.3-1.8
				c1.3,1.6-0.3,13.1-6.8,18.5c-1,0.9-1.9,0.4-1.5-0.7C675.3,108.7,678.5,100.5,677,98.5L677,98.5z"/>
			<path class="st44" d="M647.1,79.6c0.8-0.5,1.2-1.4,1.2-2.3c0-0.6-0.2-1.2-0.7-1.7c-0.7-0.6-1.6-1-2.5-1.3l-3.8-1.4
				c-3.3-1.1-4.9-3.1-4.9-6c-0.1-1.8,0.8-3.4,2.2-4.5c1.7-1.2,3.8-1.8,5.9-1.7c1.9,0,3.8,0.3,5.6,1c0.3,0.1,0.6,0.2,0.8,0.4
				s0.2,0.5,0.2,0.8V64c0,0.5-0.2,0.8-0.6,0.8c-0.3,0-0.7-0.1-1-0.2c-1.6-0.4-3.2-0.7-4.8-0.7c-2.8,0-4.3,0.9-4.3,2.8
				c0,0.7,0.2,1.3,0.7,1.7c0.8,0.6,1.8,1.1,2.8,1.4l3.5,1.3c1.4,0.5,2.7,1.3,3.7,2.4c0.8,1,1.2,2.2,1.2,3.5c0.1,1.9-0.8,3.7-2.3,4.8
				c-1.8,1.3-4,1.9-6.3,1.8c-2.3,0-4.6-0.4-6.7-1.2c-0.3-0.1-0.5-0.3-0.7-0.5c-0.1-0.2-0.2-0.5-0.2-0.8V80c0-0.5,0.2-0.8,0.5-0.8
				c0.4,0,0.8,0.1,1.1,0.3c2,0.6,4,0.9,6.1,0.9C644.9,80.5,646.1,80.2,647.1,79.6L647.1,79.6L647.1,79.6z"/>
			<path class="st44" d="M627.6,61.7c-0.1-0.4,0.2-0.8,0.7-0.9c0.1,0,0.1,0,0.2,0h2.5c0.4-0.1,0.8,0.2,0.9,0.7l0,0
				c0,0.1,0,0.1,0,0.2v20.4c0.1,0.4-0.2,0.8-0.6,0.9c-0.1,0-0.1,0-0.2,0h-1.9c-0.2,0-0.5,0-0.7-0.2s-0.3-0.4-0.3-0.7l-0.3-1.5
				c-2.3,1.9-5.2,3-8.2,3c-1.8,0.1-3.5-0.5-4.7-1.8c-1.2-1.4-1.7-3.2-1.6-5V61.7c-0.1-0.4,0.2-0.8,0.7-0.9c0.1,0,0.1,0,0.2,0h2.5
				c0.4-0.1,0.8,0.2,0.9,0.7c0,0.1,0,0.1,0,0.2v13.9c-0.1,1.2,0.2,2.5,0.9,3.5c0.7,0.8,1.8,1.3,2.9,1.2c2.2-0.1,4.4-0.8,6.2-2.1
				L627.6,61.7L627.6,61.7z"/>
			<path class="st44" d="M604.4,83.1c-0.4,0.1-0.8-0.2-0.9-0.7l0,0c0-0.1,0-0.1,0-0.2V68c0.1-1.1-0.2-2.3-0.8-3.2
				c-0.7-0.7-1.6-1.1-2.6-1c-2.3,0-4.5,0.7-6.4,2c0,0.2,0,0.4,0,0.6v15.8c0.1,0.4-0.2,0.8-0.7,0.9c-0.1,0-0.1,0-0.2,0h-2.6
				c-0.4,0.1-0.8-0.2-0.9-0.7l0,0c0-0.1,0-0.1,0-0.2V68c0.1-1.1-0.2-2.3-0.8-3.2c-0.7-0.7-1.6-1.1-2.6-1c-2.3,0-4.5,0.7-6.4,1.9
				v16.5c0.1,0.4-0.2,0.8-0.7,0.9c-0.1,0-0.1,0-0.2,0H576c-0.4,0.1-0.8-0.2-0.9-0.7c0-0.1,0-0.1,0-0.2V61.8
				c-0.1-0.4,0.2-0.8,0.6-0.9c0.1,0,0.1,0,0.2,0h1.9c0.2,0,0.5,0,0.7,0.2s0.3,0.4,0.3,0.7l0.3,1.4c2.4-1.8,5.2-2.8,8.1-2.9
				c2.7,0,4.5,1,5.5,3.1c2.5-1.9,5.5-3,8.6-3.1c1.7-0.1,3.4,0.5,4.6,1.7c1.1,1.4,1.7,3.1,1.6,4.9v15.4c0.1,0.4-0.2,0.8-0.7,0.9
				c-0.1,0-0.1,0-0.2,0L604.4,83.1L604.4,83.1z"/>
			<path class="st44" d="M671,66.2c-1.1,1.2-1.6,3.2-1.6,5.9v0.6c0,2.6,0.5,4.6,1.6,5.7c1.4,1.3,3.2,2,5.1,1.8
				c1.3,0,2.6-0.2,3.9-0.6c0.2-0.1,0.4-0.1,0.6-0.1c0.4,0,0.6,0.3,0.6,0.9v1.1c0,0.3,0,0.6-0.2,0.8c-0.2,0.2-0.4,0.4-0.7,0.5
				c-1.6,0.6-3.2,0.9-4.9,0.9c-3.4,0-6-1-7.8-2.9s-2.7-4.8-2.7-8.4c0-3.7,0.9-6.5,2.8-8.5c2.1-2.1,4.9-3.2,7.9-3
				c1.6,0,3.1,0.3,4.6,0.8c0.3,0.1,0.5,0.2,0.7,0.4c0.1,0.3,0.2,0.6,0.2,0.9v1.1c0,0.6-0.2,0.9-0.6,0.9c-0.2,0-0.5-0.1-0.7-0.1
				c-1.2-0.3-2.4-0.5-3.6-0.5C673.8,64.4,672,65,671,66.2L671,66.2L671,66.2z"/>
			<path class="st44" d="M659.9,62c0.4-0.1,0.8,0.2,0.9,0.6c0,0.1,0,0.1,0,0.2v19.9c0.1,0.4-0.2,0.8-0.6,0.9c-0.1,0-0.1,0-0.2,0
				h-2.5c-0.4,0.1-0.8-0.2-0.8-0.7l0,0c0-0.1,0-0.1,0-0.2V62.9c-0.1-0.4,0.2-0.8,0.6-0.8c0.1,0,0.1,0,0.2,0L659.9,62L659.9,62z"/>
			<path class="st44" d="M660.6,53.7c1,1.1,1,2.8,0,3.9c-1.1,1-2.8,1-4,0c-1-1.1-1-2.8,0-3.9C657.8,52.8,659.5,52.8,660.6,53.7z"/>
		</g>
		<g>
			<polygon class="st32" points="377.4,68.9 360.8,85.5 344.2,68.9 360.8,52.3 			"/>
			<g>
				<g>
					<defs>
						<rect id="SVGID_26_" x="311" y="52.3" width="99.6" height="66.4"/>
					</defs>
					<clipPath id="SVGID_27_">
						<use xlink:href="#SVGID_26_"  style="overflow:visible;"/>
					</clipPath>
					<polygon class="st45" points="377.4,102.2 360.8,118.8 344.2,102.2 360.8,85.5 					"/>
				</g>
				<g>
					<defs>
						<rect id="SVGID_28_" x="311" y="52.3" width="99.6" height="66.4"/>
					</defs>
					<clipPath id="SVGID_29_">
						<use xlink:href="#SVGID_28_"  style="overflow:visible;"/>
					</clipPath>
					<polygon class="st46" points="344.2,68.9 327.6,85.5 311,68.9 327.6,52.3 					"/>
				</g>
			</g>
			<polygon class="st32" points="410.6,68.9 394,85.5 377.4,68.9 394,52.3 			"/>
		</g>
		<g>
			<path class="st47" d="M780.9,37c-26.8,0-48.5,21.7-48.6,48.4c-0.1,26.9,21.6,48.7,48.4,48.8c26.8,0.1,48.6-21.6,48.7-48.4
				C829.6,58.8,807.8,37,780.9,37z M780.9,111c-14.1,0-25.5-11.5-25.4-25.7c0.2-14.1,11.7-25.2,25.5-25.1l0,0
				c14.1,0,25.5,11.5,25.4,25.6C806.2,99.4,795.1,111,780.9,111z"/>
			<g>
				<path class="st47" d="M772.2,72.8L772.2,72.8L772.2,72.8z"/>
				<path class="st47" d="M804,85.6c0.1-12.8-10.4-23.1-23.1-23.2c-12.6,0-23.1,10.2-23.2,23.1s10.3,23.2,23.1,23.2
					C793.7,108.7,804,98.4,804,85.6L804,85.6z M772.2,98.2c-0.1-0.4-0.1-24.9,0-25.4l0,0l0,0l0,0c7.1,4,14.3,8.1,21.4,12.1
					C793.3,85.2,772.6,98,772.2,98.2z"/>
			</g>
		</g>
		<path class="st48" d="M1041.9,37c-26.7,0-48.5,21.8-48.5,48.5s21.8,48.5,48.5,48.5c26.7,0,48.5-21.8,48.5-48.5
			S1068.9,37,1041.9,37z M1064.3,107.1c-1,1.5-2.7,1.9-4.1,1c-11.4-7-25.7-8.5-42.7-4.6c-1.7,0.5-3.1-0.7-3.6-2.2
			c-0.5-1.7,0.7-3.1,2.2-3.6c18.5-4.1,34.5-2.4,47.1,5.3C1064.7,103.8,1065,105.7,1064.3,107.1L1064.3,107.1z M1070.1,93.8
			c-1.2,1.7-3.4,2.4-5.1,1.2c-13.1-8-33-10.4-48.3-5.6c-1.9,0.5-4.1-0.5-4.6-2.4s0.5-4.1,2.4-4.6c17.7-5.3,39.6-2.7,54.6,6.6
			C1070.6,89.7,1071.3,92.1,1070.1,93.8L1070.1,93.8z M1070.6,80.2c-15.5-9.2-41.5-10.2-56.3-5.6c-2.4,0.7-4.9-0.7-5.6-2.9
			c-0.7-2.4,0.7-4.9,2.9-5.6c17.2-5.1,45.6-4.1,63.6,6.6c2.2,1.2,2.9,4.1,1.7,6.3C1075.7,80.7,1072.8,81.4,1070.6,80.2L1070.6,80.2z
			"/>
	</g>
</g>
</svg>
